<svg width="390" height="670" viewBox="0 0 390 670" fill="none" xmlns="http://www.w3.org/2000/svg">
<g clip-path="url(#clip0_172_2795)">
<mask id="mask0_172_2795" style="mask-type:alpha" maskUnits="userSpaceOnUse" x="0" y="83" width="503" height="504">
<rect width="502.5" height="502.5" transform="translate(0 586.25) rotate(-90)" fill="url(#paint0_radial_172_2795)"/>
</mask>
<g mask="url(#mask0_172_2795)">
<g clip-path="url(#clip1_172_2795)">
<path d="M33.5 569.5L33.849 569.5L33.849 569.151L33.5 569.151L33.5 569.5ZM-1.44908e-06 569.849L33.5 569.849L33.5 569.151L-1.47958e-06 569.151L-1.44908e-06 569.849ZM33.151 569.5L33.151 603L33.849 603L33.849 569.5L33.151 569.5Z" fill="#D9C8BA" mask="url(#path-3-inside-1_172_2795)"/>
<path d="M33.5 536L33.849 536L33.849 535.651L33.5 535.651L33.5 536ZM-1.44908e-06 536.349L33.5 536.349L33.5 535.651L-1.47958e-06 535.651L-1.44908e-06 536.349ZM33.151 536L33.151 569.5L33.849 569.5L33.849 536L33.151 536Z" fill="#D9C8BA" mask="url(#path-5-inside-2_172_2795)"/>
<path d="M33.5 502.5L33.849 502.5L33.849 502.151L33.5 502.151L33.5 502.5ZM-1.44908e-06 502.849L33.5 502.849L33.5 502.151L-1.47958e-06 502.151L-1.44908e-06 502.849ZM33.151 502.5L33.151 536L33.849 536L33.849 502.5L33.151 502.5Z" fill="#D9C8BA" mask="url(#path-7-inside-3_172_2795)"/>
<path d="M33.5 469L33.849 469L33.849 468.651L33.5 468.651L33.5 469ZM-1.44908e-06 469.349L33.5 469.349L33.5 468.651L-1.47958e-06 468.651L-1.44908e-06 469.349ZM33.151 469L33.151 502.5L33.849 502.5L33.849 469L33.151 469Z" fill="#D9C8BA" mask="url(#path-9-inside-4_172_2795)"/>
<path d="M33.5 435.5L33.849 435.5L33.849 435.151L33.5 435.151L33.5 435.5ZM-1.44908e-06 435.849L33.5 435.849L33.5 435.151L-1.47958e-06 435.151L-1.44908e-06 435.849ZM33.151 435.5L33.151 469L33.849 469L33.849 435.5L33.151 435.5Z" fill="#D9C8BA" mask="url(#path-11-inside-5_172_2795)"/>
<path d="M33.5 402L33.849 402L33.849 401.651L33.5 401.651L33.5 402ZM-1.44908e-06 402.349L33.5 402.349L33.5 401.651L-1.47958e-06 401.651L-1.44908e-06 402.349ZM33.151 402L33.151 435.5L33.849 435.5L33.849 402L33.151 402Z" fill="#D9C8BA" mask="url(#path-13-inside-6_172_2795)"/>
<path d="M33.5 368.5L33.849 368.5L33.849 368.151L33.5 368.151L33.5 368.5ZM-1.44908e-06 368.849L33.5 368.849L33.5 368.151L-1.47958e-06 368.151L-1.44908e-06 368.849ZM33.151 368.5L33.151 402L33.849 402L33.849 368.5L33.151 368.5Z" fill="#D9C8BA" mask="url(#path-15-inside-7_172_2795)"/>
<path d="M33.5 335L33.849 335L33.849 334.651L33.5 334.651L33.5 335ZM-1.44908e-06 335.349L33.5 335.349L33.5 334.651L-1.47958e-06 334.651L-1.44908e-06 335.349ZM33.151 335L33.151 368.5L33.849 368.5L33.849 335L33.151 335Z" fill="#D9C8BA" mask="url(#path-17-inside-8_172_2795)"/>
<path d="M33.5 301.5L33.849 301.5L33.849 301.151L33.5 301.151L33.5 301.5ZM-1.44908e-06 301.849L33.5 301.849L33.5 301.151L-1.47958e-06 301.151L-1.44908e-06 301.849ZM33.151 301.5L33.151 335L33.849 335L33.849 301.5L33.151 301.5Z" fill="#D9C8BA" mask="url(#path-19-inside-9_172_2795)"/>
<path d="M33.5 268L33.849 268L33.849 267.651L33.5 267.651L33.5 268ZM-1.44908e-06 268.349L33.5 268.349L33.5 267.651L-1.47958e-06 267.651L-1.44908e-06 268.349ZM33.151 268L33.151 301.5L33.849 301.5L33.849 268L33.151 268Z" fill="#D9C8BA" mask="url(#path-21-inside-10_172_2795)"/>
<path d="M33.5 234.5L33.849 234.5L33.849 234.151L33.5 234.151L33.5 234.5ZM-1.44908e-06 234.849L33.5 234.849L33.5 234.151L-1.47958e-06 234.151L-1.44908e-06 234.849ZM33.151 234.5L33.151 268L33.849 268L33.849 234.5L33.151 234.5Z" fill="#D9C8BA" mask="url(#path-23-inside-11_172_2795)"/>
<path d="M33.5 201L33.849 201L33.849 200.651L33.5 200.651L33.5 201ZM-1.44908e-06 201.349L33.5 201.349L33.5 200.651L-1.47958e-06 200.651L-1.44908e-06 201.349ZM33.151 201L33.151 234.5L33.849 234.5L33.849 201L33.151 201Z" fill="#D9C8BA" mask="url(#path-25-inside-12_172_2795)"/>
<path d="M33.5 167.5L33.849 167.5L33.849 167.151L33.5 167.151L33.5 167.5ZM-1.44908e-06 167.849L33.5 167.849L33.5 167.151L-1.47958e-06 167.151L-1.44908e-06 167.849ZM33.151 167.5L33.151 201L33.849 201L33.849 167.5L33.151 167.5Z" fill="#D9C8BA" mask="url(#path-27-inside-13_172_2795)"/>
<path d="M33.5 134L33.849 134L33.849 133.651L33.5 133.651L33.5 134ZM-1.44908e-06 134.349L33.5 134.349L33.5 133.651L-1.47958e-06 133.651L-1.44908e-06 134.349ZM33.151 134L33.151 167.5L33.849 167.5L33.849 134L33.151 134Z" fill="#D9C8BA" mask="url(#path-29-inside-14_172_2795)"/>
<path d="M33.5 100.5L33.849 100.5L33.849 100.151L33.5 100.151L33.5 100.5ZM-1.44908e-06 100.849L33.5 100.849L33.5 100.151L-1.47958e-06 100.151L-1.44908e-06 100.849ZM33.151 100.5L33.151 134L33.849 134L33.849 100.5L33.151 100.5Z" fill="#D9C8BA" mask="url(#path-31-inside-15_172_2795)"/>
<path d="M33.5 67L33.849 67L33.849 66.651L33.5 66.651L33.5 67ZM-1.44908e-06 67.349L33.5 67.349L33.5 66.651L-1.47958e-06 66.651L-1.44908e-06 67.349ZM33.151 67L33.151 100.5L33.849 100.5L33.849 67L33.151 67Z" fill="#D9C8BA" mask="url(#path-33-inside-16_172_2795)"/>
<path d="M67 569.5L67.349 569.5L67.349 569.151L67 569.151L67 569.5ZM33.5 569.849L67 569.849L67 569.151L33.5 569.151L33.5 569.849ZM66.651 569.5L66.651 603L67.349 603L67.349 569.5L66.651 569.5Z" fill="#D9C8BA" mask="url(#path-35-inside-17_172_2795)"/>
<path d="M67 536L67.349 536L67.349 535.651L67 535.651L67 536ZM33.5 536.349L67 536.349L67 535.651L33.5 535.651L33.5 536.349ZM66.651 536L66.651 569.5L67.349 569.5L67.349 536L66.651 536Z" fill="#D9C8BA" mask="url(#path-37-inside-18_172_2795)"/>
<path d="M67 502.5L67.349 502.5L67.349 502.151L67 502.151L67 502.5ZM33.5 502.849L67 502.849L67 502.151L33.5 502.151L33.5 502.849ZM66.651 502.5L66.651 536L67.349 536L67.349 502.5L66.651 502.5Z" fill="#D9C8BA" mask="url(#path-39-inside-19_172_2795)"/>
<mask id="path-41-inside-20_172_2795" fill="white">
<path d="M33.5 502.5L33.5 469L67 469L67 502.5L33.5 502.5Z"/>
</mask>
<path d="M33.5 502.5L33.5 469L67 469L67 502.5L33.5 502.5Z" fill="#E6D2C2"/>
<path d="M67 469L67.349 469L67.349 468.651L67 468.651L67 469ZM33.5 469.349L67 469.349L67 468.651L33.5 468.651L33.5 469.349ZM66.651 469L66.651 502.5L67.349 502.5L67.349 469L66.651 469Z" fill="#D9C8BA" mask="url(#path-41-inside-20_172_2795)"/>
<path d="M67 435.5L67.349 435.5L67.349 435.151L67 435.151L67 435.5ZM33.5 435.849L67 435.849L67 435.151L33.5 435.151L33.5 435.849ZM66.651 435.5L66.651 469L67.349 469L67.349 435.5L66.651 435.5Z" fill="#D9C8BA" mask="url(#path-43-inside-21_172_2795)"/>
<path d="M67 402L67.349 402L67.349 401.651L67 401.651L67 402ZM33.5 402.349L67 402.349L67 401.651L33.5 401.651L33.5 402.349ZM66.651 402L66.651 435.5L67.349 435.5L67.349 402L66.651 402Z" fill="#D9C8BA" mask="url(#path-45-inside-22_172_2795)"/>
<path d="M67 368.5L67.349 368.5L67.349 368.151L67 368.151L67 368.5ZM33.5 368.849L67 368.849L67 368.151L33.5 368.151L33.5 368.849ZM66.651 368.5L66.651 402L67.349 402L67.349 368.5L66.651 368.5Z" fill="#D9C8BA" mask="url(#path-47-inside-23_172_2795)"/>
<path d="M67 335L67.349 335L67.349 334.651L67 334.651L67 335ZM33.5 335.349L67 335.349L67 334.651L33.5 334.651L33.5 335.349ZM66.651 335L66.651 368.5L67.349 368.5L67.349 335L66.651 335Z" fill="#D9C8BA" mask="url(#path-49-inside-24_172_2795)"/>
<path d="M67 301.5L67.349 301.5L67.349 301.151L67 301.151L67 301.5ZM33.5 301.849L67 301.849L67 301.151L33.5 301.151L33.5 301.849ZM66.651 301.5L66.651 335L67.349 335L67.349 301.5L66.651 301.5Z" fill="#D9C8BA" mask="url(#path-51-inside-25_172_2795)"/>
<path d="M67 268L67.349 268L67.349 267.651L67 267.651L67 268ZM33.5 268.349L67 268.349L67 267.651L33.5 267.651L33.5 268.349ZM66.651 268L66.651 301.5L67.349 301.5L67.349 268L66.651 268Z" fill="#D9C8BA" mask="url(#path-53-inside-26_172_2795)"/>
<path d="M67 234.5L67.349 234.5L67.349 234.151L67 234.151L67 234.5ZM33.5 234.849L67 234.849L67 234.151L33.5 234.151L33.5 234.849ZM66.651 234.5L66.651 268L67.349 268L67.349 234.5L66.651 234.5Z" fill="#D9C8BA" mask="url(#path-55-inside-27_172_2795)"/>
<path d="M67 201L67.349 201L67.349 200.651L67 200.651L67 201ZM33.5 201.349L67 201.349L67 200.651L33.5 200.651L33.5 201.349ZM66.651 201L66.651 234.5L67.349 234.5L67.349 201L66.651 201Z" fill="#D9C8BA" mask="url(#path-57-inside-28_172_2795)"/>
<mask id="path-59-inside-29_172_2795" fill="white">
<path d="M33.5 201L33.5 167.5L67 167.5L67 201L33.5 201Z"/>
</mask>
<path d="M33.5 201L33.5 167.5L67 167.5L67 201L33.5 201Z" fill="#E6D2C2"/>
<path d="M67 167.5L67.349 167.5L67.349 167.151L67 167.151L67 167.5ZM33.5 167.849L67 167.849L67 167.151L33.5 167.151L33.5 167.849ZM66.651 167.5L66.651 201L67.349 201L67.349 167.5L66.651 167.5Z" fill="#D9C8BA" mask="url(#path-59-inside-29_172_2795)"/>
<path d="M67 134L67.349 134L67.349 133.651L67 133.651L67 134ZM33.5 134.349L67 134.349L67 133.651L33.5 133.651L33.5 134.349ZM66.651 134L66.651 167.5L67.349 167.5L67.349 134L66.651 134Z" fill="#D9C8BA" mask="url(#path-61-inside-30_172_2795)"/>
<path d="M67 100.5L67.349 100.5L67.349 100.151L67 100.151L67 100.5ZM33.5 100.849L67 100.849L67 100.151L33.5 100.151L33.5 100.849ZM66.651 100.5L66.651 134L67.349 134L67.349 100.5L66.651 100.5Z" fill="#D9C8BA" mask="url(#path-63-inside-31_172_2795)"/>
<path d="M67 67L67.349 67L67.349 66.651L67 66.651L67 67ZM33.5 67.349L67 67.349L67 66.651L33.5 66.651L33.5 67.349ZM66.651 67L66.651 100.5L67.349 100.5L67.349 67L66.651 67Z" fill="#D9C8BA" mask="url(#path-65-inside-32_172_2795)"/>
<path d="M100.5 569.5L100.849 569.5L100.849 569.151L100.5 569.151L100.5 569.5ZM67 569.849L100.5 569.849L100.5 569.151L67 569.151L67 569.849ZM100.151 569.5L100.151 603L100.849 603L100.849 569.5L100.151 569.5Z" fill="#D9C8BA" mask="url(#path-67-inside-33_172_2795)"/>
<path d="M100.5 536L100.849 536L100.849 535.651L100.5 535.651L100.5 536ZM67 536.349L100.5 536.349L100.5 535.651L67 535.651L67 536.349ZM100.151 536L100.151 569.5L100.849 569.5L100.849 536L100.151 536Z" fill="#D9C8BA" mask="url(#path-69-inside-34_172_2795)"/>
<path d="M100.5 502.5L100.849 502.5L100.849 502.151L100.5 502.151L100.5 502.5ZM67 502.849L100.5 502.849L100.5 502.151L67 502.151L67 502.849ZM100.151 502.5L100.151 536L100.849 536L100.849 502.5L100.151 502.5Z" fill="#D9C8BA" mask="url(#path-71-inside-35_172_2795)"/>
<path d="M100.5 469L100.849 469L100.849 468.651L100.5 468.651L100.5 469ZM67 469.349L100.5 469.349L100.5 468.651L67 468.651L67 469.349ZM100.151 469L100.151 502.5L100.849 502.5L100.849 469L100.151 469Z" fill="#D9C8BA" mask="url(#path-73-inside-36_172_2795)"/>
<path d="M100.5 435.5L100.849 435.5L100.849 435.151L100.5 435.151L100.5 435.5ZM67 435.849L100.5 435.849L100.5 435.151L67 435.151L67 435.849ZM100.151 435.5L100.151 469L100.849 469L100.849 435.5L100.151 435.5Z" fill="#D9C8BA" mask="url(#path-75-inside-37_172_2795)"/>
<mask id="path-77-inside-38_172_2795" fill="white">
<path d="M67 435.5L67 402L100.5 402L100.5 435.5L67 435.5Z"/>
</mask>
<path d="M67 435.5L67 402L100.5 402L100.5 435.5L67 435.5Z" fill="#E6D2C2"/>
<path d="M100.5 402L100.849 402L100.849 401.651L100.5 401.651L100.5 402ZM67 402.349L100.5 402.349L100.5 401.651L67 401.651L67 402.349ZM100.151 402L100.151 435.5L100.849 435.5L100.849 402L100.151 402Z" fill="#D9C8BA" mask="url(#path-77-inside-38_172_2795)"/>
<path d="M100.5 368.5L100.849 368.5L100.849 368.151L100.5 368.151L100.5 368.5ZM67 368.849L100.5 368.849L100.5 368.151L67 368.151L67 368.849ZM100.151 368.5L100.151 402L100.849 402L100.849 368.5L100.151 368.5Z" fill="#D9C8BA" mask="url(#path-79-inside-39_172_2795)"/>
<path d="M100.5 335L100.849 335L100.849 334.651L100.5 334.651L100.5 335ZM67 335.349L100.5 335.349L100.5 334.651L67 334.651L67 335.349ZM100.151 335L100.151 368.5L100.849 368.5L100.849 335L100.151 335Z" fill="#D9C8BA" mask="url(#path-81-inside-40_172_2795)"/>
<path d="M100.5 301.5L100.849 301.5L100.849 301.151L100.5 301.151L100.5 301.5ZM67 301.849L100.5 301.849L100.5 301.151L67 301.151L67 301.849ZM100.151 301.5L100.151 335L100.849 335L100.849 301.5L100.151 301.5Z" fill="#D9C8BA" mask="url(#path-83-inside-41_172_2795)"/>
<mask id="path-85-inside-42_172_2795" fill="white">
<path d="M67 301.5L67 268L100.5 268L100.5 301.5L67 301.5Z"/>
</mask>
<path d="M67 301.5L67 268L100.5 268L100.5 301.5L67 301.5Z" fill="#E6D2C2"/>
<path d="M100.5 268L100.849 268L100.849 267.651L100.5 267.651L100.5 268ZM67 268.349L100.5 268.349L100.5 267.651L67 267.651L67 268.349ZM100.151 268L100.151 301.5L100.849 301.5L100.849 268L100.151 268Z" fill="#D9C8BA" mask="url(#path-85-inside-42_172_2795)"/>
<path d="M100.5 234.5L100.849 234.5L100.849 234.151L100.5 234.151L100.5 234.5ZM67 234.849L100.5 234.849L100.5 234.151L67 234.151L67 234.849ZM100.151 234.5L100.151 268L100.849 268L100.849 234.5L100.151 234.5Z" fill="#D9C8BA" mask="url(#path-87-inside-43_172_2795)"/>
<path d="M100.5 201L100.849 201L100.849 200.651L100.5 200.651L100.5 201ZM67 201.349L100.5 201.349L100.5 200.651L67 200.651L67 201.349ZM100.151 201L100.151 234.5L100.849 234.5L100.849 201L100.151 201Z" fill="#D9C8BA" mask="url(#path-89-inside-44_172_2795)"/>
<path d="M100.5 167.5L100.849 167.5L100.849 167.151L100.5 167.151L100.5 167.5ZM67 167.849L100.5 167.849L100.5 167.151L67 167.151L67 167.849ZM100.151 167.5L100.151 201L100.849 201L100.849 167.5L100.151 167.5Z" fill="#D9C8BA" mask="url(#path-91-inside-45_172_2795)"/>
<path d="M100.5 134L100.849 134L100.849 133.651L100.5 133.651L100.5 134ZM67 134.349L100.5 134.349L100.5 133.651L67 133.651L67 134.349ZM100.151 134L100.151 167.5L100.849 167.5L100.849 134L100.151 134Z" fill="#D9C8BA" mask="url(#path-93-inside-46_172_2795)"/>
<path d="M100.5 100.5L100.849 100.5L100.849 100.151L100.5 100.151L100.5 100.5ZM67 100.849L100.5 100.849L100.5 100.151L67 100.151L67 100.849ZM100.151 100.5L100.151 134L100.849 134L100.849 100.5L100.151 100.5Z" fill="#D9C8BA" mask="url(#path-95-inside-47_172_2795)"/>
<path d="M100.5 67L100.849 67L100.849 66.651L100.5 66.651L100.5 67ZM67 67.349L100.5 67.349L100.5 66.651L67 66.651L67 67.349ZM100.151 67L100.151 100.5L100.849 100.5L100.849 67L100.151 67Z" fill="#D9C8BA" mask="url(#path-97-inside-48_172_2795)"/>
<mask id="path-99-inside-49_172_2795" fill="white">
<path d="M100.5 603L100.5 569.5L134 569.5L134 603L100.5 603Z"/>
</mask>
<path d="M100.5 603L100.5 569.5L134 569.5L134 603L100.5 603Z" fill="#E6D2C2"/>
<path d="M134 569.5L134.349 569.5L134.349 569.151L134 569.151L134 569.5ZM100.5 569.849L134 569.849L134 569.151L100.5 569.151L100.5 569.849ZM133.651 569.5L133.651 603L134.349 603L134.349 569.5L133.651 569.5Z" fill="#D9C8BA" mask="url(#path-99-inside-49_172_2795)"/>
<path d="M134 536L134.349 536L134.349 535.651L134 535.651L134 536ZM100.5 536.349L134 536.349L134 535.651L100.5 535.651L100.5 536.349ZM133.651 536L133.651 569.5L134.349 569.5L134.349 536L133.651 536Z" fill="#D9C8BA" mask="url(#path-101-inside-50_172_2795)"/>
<path d="M134 502.5L134.349 502.5L134.349 502.151L134 502.151L134 502.5ZM100.5 502.849L134 502.849L134 502.151L100.5 502.151L100.5 502.849ZM133.651 502.5L133.651 536L134.349 536L134.349 502.5L133.651 502.5Z" fill="#D9C8BA" mask="url(#path-103-inside-51_172_2795)"/>
<path d="M134 469L134.349 469L134.349 468.651L134 468.651L134 469ZM100.5 469.349L134 469.349L134 468.651L100.5 468.651L100.5 469.349ZM133.651 469L133.651 502.5L134.349 502.5L134.349 469L133.651 469Z" fill="#D9C8BA" mask="url(#path-105-inside-52_172_2795)"/>
<path d="M134 435.5L134.349 435.5L134.349 435.151L134 435.151L134 435.5ZM100.5 435.849L134 435.849L134 435.151L100.5 435.151L100.5 435.849ZM133.651 435.5L133.651 469L134.349 469L134.349 435.5L133.651 435.5Z" fill="#D9C8BA" mask="url(#path-107-inside-53_172_2795)"/>
<path d="M134 402L134.349 402L134.349 401.651L134 401.651L134 402ZM100.5 402.349L134 402.349L134 401.651L100.5 401.651L100.5 402.349ZM133.651 402L133.651 435.5L134.349 435.5L134.349 402L133.651 402Z" fill="#D9C8BA" mask="url(#path-109-inside-54_172_2795)"/>
<path d="M134 368.5L134.349 368.5L134.349 368.151L134 368.151L134 368.5ZM100.5 368.849L134 368.849L134 368.151L100.5 368.151L100.5 368.849ZM133.651 368.5L133.651 402L134.349 402L134.349 368.5L133.651 368.5Z" fill="#D9C8BA" mask="url(#path-111-inside-55_172_2795)"/>
<path d="M134 335L134.349 335L134.349 334.651L134 334.651L134 335ZM100.5 335.349L134 335.349L134 334.651L100.5 334.651L100.5 335.349ZM133.651 335L133.651 368.5L134.349 368.5L134.349 335L133.651 335Z" fill="#D9C8BA" mask="url(#path-113-inside-56_172_2795)"/>
<path d="M134 301.5L134.349 301.5L134.349 301.151L134 301.151L134 301.5ZM100.5 301.849L134 301.849L134 301.151L100.5 301.151L100.5 301.849ZM133.651 301.5L133.651 335L134.349 335L134.349 301.5L133.651 301.5Z" fill="#D9C8BA" mask="url(#path-115-inside-57_172_2795)"/>
<path d="M134 268L134.349 268L134.349 267.651L134 267.651L134 268ZM100.5 268.349L134 268.349L134 267.651L100.5 267.651L100.5 268.349ZM133.651 268L133.651 301.5L134.349 301.5L134.349 268L133.651 268Z" fill="#D9C8BA" mask="url(#path-117-inside-58_172_2795)"/>
<path d="M134 234.5L134.349 234.5L134.349 234.151L134 234.151L134 234.5ZM100.5 234.849L134 234.849L134 234.151L100.5 234.151L100.5 234.849ZM133.651 234.5L133.651 268L134.349 268L134.349 234.5L133.651 234.5Z" fill="#D9C8BA" mask="url(#path-119-inside-59_172_2795)"/>
<path d="M134 201L134.349 201L134.349 200.651L134 200.651L134 201ZM100.5 201.349L134 201.349L134 200.651L100.5 200.651L100.5 201.349ZM133.651 201L133.651 234.5L134.349 234.5L134.349 201L133.651 201Z" fill="#D9C8BA" mask="url(#path-121-inside-60_172_2795)"/>
<mask id="path-123-inside-61_172_2795" fill="white">
<path d="M100.5 201L100.5 167.5L134 167.5L134 201L100.5 201Z"/>
</mask>
<path d="M100.5 201L100.5 167.5L134 167.5L134 201L100.5 201Z" fill="#E6D2C2"/>
<path d="M134 167.5L134.349 167.5L134.349 167.151L134 167.151L134 167.5ZM100.5 167.849L134 167.849L134 167.151L100.5 167.151L100.5 167.849ZM133.651 167.5L133.651 201L134.349 201L134.349 167.5L133.651 167.5Z" fill="#D9C8BA" mask="url(#path-123-inside-61_172_2795)"/>
<path d="M134 134L134.349 134L134.349 133.651L134 133.651L134 134ZM100.5 134.349L134 134.349L134 133.651L100.5 133.651L100.5 134.349ZM133.651 134L133.651 167.5L134.349 167.5L134.349 134L133.651 134Z" fill="#D9C8BA" mask="url(#path-125-inside-62_172_2795)"/>
<path d="M134 100.5L134.349 100.5L134.349 100.151L134 100.151L134 100.5ZM100.5 100.849L134 100.849L134 100.151L100.5 100.151L100.5 100.849ZM133.651 100.5L133.651 134L134.349 134L134.349 100.5L133.651 100.5Z" fill="#D9C8BA" mask="url(#path-127-inside-63_172_2795)"/>
<path d="M134 67L134.349 67L134.349 66.651L134 66.651L134 67ZM100.5 67.349L134 67.349L134 66.651L100.5 66.651L100.5 67.349ZM133.651 67L133.651 100.5L134.349 100.5L134.349 67L133.651 67Z" fill="#D9C8BA" mask="url(#path-129-inside-64_172_2795)"/>
<path d="M167.5 569.5L167.849 569.5L167.849 569.151L167.5 569.151L167.5 569.5ZM134 569.849L167.5 569.849L167.5 569.151L134 569.151L134 569.849ZM167.151 569.5L167.151 603L167.849 603L167.849 569.5L167.151 569.5Z" fill="#D9C8BA" mask="url(#path-131-inside-65_172_2795)"/>
<path d="M167.5 536L167.849 536L167.849 535.651L167.5 535.651L167.5 536ZM134 536.349L167.5 536.349L167.5 535.651L134 535.651L134 536.349ZM167.151 536L167.151 569.5L167.849 569.5L167.849 536L167.151 536Z" fill="#D9C8BA" mask="url(#path-133-inside-66_172_2795)"/>
<path d="M167.5 502.5L167.849 502.5L167.849 502.151L167.5 502.151L167.5 502.5ZM134 502.849L167.5 502.849L167.5 502.151L134 502.151L134 502.849ZM167.151 502.5L167.151 536L167.849 536L167.849 502.5L167.151 502.5Z" fill="#D9C8BA" mask="url(#path-135-inside-67_172_2795)"/>
<path d="M167.5 469L167.849 469L167.849 468.651L167.5 468.651L167.5 469ZM134 469.349L167.5 469.349L167.5 468.651L134 468.651L134 469.349ZM167.151 469L167.151 502.5L167.849 502.5L167.849 469L167.151 469Z" fill="#D9C8BA" mask="url(#path-137-inside-68_172_2795)"/>
<path d="M167.5 435.5L167.849 435.5L167.849 435.151L167.5 435.151L167.5 435.5ZM134 435.849L167.5 435.849L167.5 435.151L134 435.151L134 435.849ZM167.151 435.5L167.151 469L167.849 469L167.849 435.5L167.151 435.5Z" fill="#D9C8BA" mask="url(#path-139-inside-69_172_2795)"/>
<path d="M167.5 402L167.849 402L167.849 401.651L167.5 401.651L167.5 402ZM134 402.349L167.5 402.349L167.5 401.651L134 401.651L134 402.349ZM167.151 402L167.151 435.5L167.849 435.5L167.849 402L167.151 402Z" fill="#D9C8BA" mask="url(#path-141-inside-70_172_2795)"/>
<mask id="path-143-inside-71_172_2795" fill="white">
<path d="M134 402L134 368.5L167.5 368.5L167.5 402L134 402Z"/>
</mask>
<path d="M134 402L134 368.5L167.5 368.5L167.5 402L134 402Z" fill="#E6D2C2"/>
<path d="M167.5 368.5L167.849 368.5L167.849 368.151L167.5 368.151L167.5 368.5ZM134 368.849L167.5 368.849L167.5 368.151L134 368.151L134 368.849ZM167.151 368.5L167.151 402L167.849 402L167.849 368.5L167.151 368.5Z" fill="#D9C8BA" mask="url(#path-143-inside-71_172_2795)"/>
<path d="M167.5 335L167.849 335L167.849 334.651L167.5 334.651L167.5 335ZM134 335.349L167.5 335.349L167.5 334.651L134 334.651L134 335.349ZM167.151 335L167.151 368.5L167.849 368.5L167.849 335L167.151 335Z" fill="#D9C8BA" mask="url(#path-145-inside-72_172_2795)"/>
<path d="M167.5 301.5L167.849 301.5L167.849 301.151L167.5 301.151L167.5 301.5ZM134 301.849L167.5 301.849L167.5 301.151L134 301.151L134 301.849ZM167.151 301.5L167.151 335L167.849 335L167.849 301.5L167.151 301.5Z" fill="#D9C8BA" mask="url(#path-147-inside-73_172_2795)"/>
<path d="M167.5 268L167.849 268L167.849 267.651L167.5 267.651L167.5 268ZM134 268.349L167.5 268.349L167.5 267.651L134 267.651L134 268.349ZM167.151 268L167.151 301.5L167.849 301.5L167.849 268L167.151 268Z" fill="#D9C8BA" mask="url(#path-149-inside-74_172_2795)"/>
<path d="M167.5 234.5L167.849 234.5L167.849 234.151L167.5 234.151L167.5 234.5ZM134 234.849L167.5 234.849L167.5 234.151L134 234.151L134 234.849ZM167.151 234.5L167.151 268L167.849 268L167.849 234.5L167.151 234.5Z" fill="#D9C8BA" mask="url(#path-151-inside-75_172_2795)"/>
<path d="M167.5 201L167.849 201L167.849 200.651L167.5 200.651L167.5 201ZM134 201.349L167.5 201.349L167.5 200.651L134 200.651L134 201.349ZM167.151 201L167.151 234.5L167.849 234.5L167.849 201L167.151 201Z" fill="#D9C8BA" mask="url(#path-153-inside-76_172_2795)"/>
<path d="M167.5 167.5L167.849 167.5L167.849 167.151L167.5 167.151L167.5 167.5ZM134 167.849L167.5 167.849L167.5 167.151L134 167.151L134 167.849ZM167.151 167.5L167.151 201L167.849 201L167.849 167.5L167.151 167.5Z" fill="#D9C8BA" mask="url(#path-155-inside-77_172_2795)"/>
<path d="M167.5 134L167.849 134L167.849 133.651L167.5 133.651L167.5 134ZM134 134.349L167.5 134.349L167.5 133.651L134 133.651L134 134.349ZM167.151 134L167.151 167.5L167.849 167.5L167.849 134L167.151 134Z" fill="#D9C8BA" mask="url(#path-157-inside-78_172_2795)"/>
<path d="M167.5 100.5L167.849 100.5L167.849 100.151L167.5 100.151L167.5 100.5ZM134 100.849L167.5 100.849L167.5 100.151L134 100.151L134 100.849ZM167.151 100.5L167.151 134L167.849 134L167.849 100.5L167.151 100.5Z" fill="#D9C8BA" mask="url(#path-159-inside-79_172_2795)"/>
<path d="M167.5 67L167.849 67L167.849 66.651L167.5 66.651L167.5 67ZM134 67.349L167.5 67.349L167.5 66.651L134 66.651L134 67.349ZM167.151 67L167.151 100.5L167.849 100.5L167.849 67L167.151 67Z" fill="#D9C8BA" mask="url(#path-161-inside-80_172_2795)"/>
<path d="M201 569.5L201.349 569.5L201.349 569.151L201 569.151L201 569.5ZM167.5 569.849L201 569.849L201 569.151L167.5 569.151L167.5 569.849ZM200.651 569.5L200.651 603L201.349 603L201.349 569.5L200.651 569.5Z" fill="#D9C8BA" mask="url(#path-163-inside-81_172_2795)"/>
<path d="M201 536L201.349 536L201.349 535.651L201 535.651L201 536ZM167.5 536.349L201 536.349L201 535.651L167.5 535.651L167.5 536.349ZM200.651 536L200.651 569.5L201.349 569.5L201.349 536L200.651 536Z" fill="#D9C8BA" mask="url(#path-165-inside-82_172_2795)"/>
<path d="M201 502.5L201.349 502.5L201.349 502.151L201 502.151L201 502.5ZM167.5 502.849L201 502.849L201 502.151L167.5 502.151L167.5 502.849ZM200.651 502.5L200.651 536L201.349 536L201.349 502.5L200.651 502.5Z" fill="#D9C8BA" mask="url(#path-167-inside-83_172_2795)"/>
<mask id="path-169-inside-84_172_2795" fill="white">
<path d="M167.5 502.5L167.5 469L201 469L201 502.5L167.5 502.5Z"/>
</mask>
<path d="M167.5 502.5L167.5 469L201 469L201 502.5L167.5 502.5Z" fill="#E6D2C2"/>
<path d="M201 469L201.349 469L201.349 468.651L201 468.651L201 469ZM167.5 469.349L201 469.349L201 468.651L167.5 468.651L167.5 469.349ZM200.651 469L200.651 502.5L201.349 502.5L201.349 469L200.651 469Z" fill="#D9C8BA" mask="url(#path-169-inside-84_172_2795)"/>
<path d="M201 435.5L201.349 435.5L201.349 435.151L201 435.151L201 435.5ZM167.5 435.849L201 435.849L201 435.151L167.5 435.151L167.5 435.849ZM200.651 435.5L200.651 469L201.349 469L201.349 435.5L200.651 435.5Z" fill="#D9C8BA" mask="url(#path-171-inside-85_172_2795)"/>
<path d="M201 402L201.349 402L201.349 401.651L201 401.651L201 402ZM167.5 402.349L201 402.349L201 401.651L167.5 401.651L167.5 402.349ZM200.651 402L200.651 435.5L201.349 435.5L201.349 402L200.651 402Z" fill="#D9C8BA" mask="url(#path-173-inside-86_172_2795)"/>
<path d="M201 368.5L201.349 368.5L201.349 368.151L201 368.151L201 368.5ZM167.5 368.849L201 368.849L201 368.151L167.5 368.151L167.5 368.849ZM200.651 368.5L200.651 402L201.349 402L201.349 368.5L200.651 368.5Z" fill="#D9C8BA" mask="url(#path-175-inside-87_172_2795)"/>
<path d="M201 335L201.349 335L201.349 334.651L201 334.651L201 335ZM167.5 335.349L201 335.349L201 334.651L167.5 334.651L167.5 335.349ZM200.651 335L200.651 368.5L201.349 368.5L201.349 335L200.651 335Z" fill="#D9C8BA" mask="url(#path-177-inside-88_172_2795)"/>
<path d="M201 301.5L201.349 301.5L201.349 301.151L201 301.151L201 301.5ZM167.5 301.849L201 301.849L201 301.151L167.5 301.151L167.5 301.849ZM200.651 301.5L200.651 335L201.349 335L201.349 301.5L200.651 301.5Z" fill="#D9C8BA" mask="url(#path-179-inside-89_172_2795)"/>
<mask id="path-181-inside-90_172_2795" fill="white">
<path d="M167.5 301.5L167.5 268L201 268L201 301.5L167.5 301.5Z"/>
</mask>
<path d="M167.5 301.5L167.5 268L201 268L201 301.5L167.5 301.5Z" fill="#E6D2C2"/>
<path d="M201 268L201.349 268L201.349 267.651L201 267.651L201 268ZM167.5 268.349L201 268.349L201 267.651L167.5 267.651L167.5 268.349ZM200.651 268L200.651 301.5L201.349 301.5L201.349 268L200.651 268Z" fill="#D9C8BA" mask="url(#path-181-inside-90_172_2795)"/>
<path d="M201 234.5L201.349 234.5L201.349 234.151L201 234.151L201 234.5ZM167.5 234.849L201 234.849L201 234.151L167.5 234.151L167.5 234.849ZM200.651 234.5L200.651 268L201.349 268L201.349 234.5L200.651 234.5Z" fill="#D9C8BA" mask="url(#path-183-inside-91_172_2795)"/>
<path d="M201 201L201.349 201L201.349 200.651L201 200.651L201 201ZM167.5 201.349L201 201.349L201 200.651L167.5 200.651L167.5 201.349ZM200.651 201L200.651 234.5L201.349 234.5L201.349 201L200.651 201Z" fill="#D9C8BA" mask="url(#path-185-inside-92_172_2795)"/>
<path d="M201 167.5L201.349 167.5L201.349 167.151L201 167.151L201 167.5ZM167.5 167.849L201 167.849L201 167.151L167.5 167.151L167.5 167.849ZM200.651 167.5L200.651 201L201.349 201L201.349 167.5L200.651 167.5Z" fill="#D9C8BA" mask="url(#path-187-inside-93_172_2795)"/>
<path d="M201 134L201.349 134L201.349 133.651L201 133.651L201 134ZM167.5 134.349L201 134.349L201 133.651L167.5 133.651L167.5 134.349ZM200.651 134L200.651 167.5L201.349 167.5L201.349 134L200.651 134Z" fill="#D9C8BA" mask="url(#path-189-inside-94_172_2795)"/>
<path d="M201 100.5L201.349 100.5L201.349 100.151L201 100.151L201 100.5ZM167.5 100.849L201 100.849L201 100.151L167.5 100.151L167.5 100.849ZM200.651 100.5L200.651 134L201.349 134L201.349 100.5L200.651 100.5Z" fill="#D9C8BA" mask="url(#path-191-inside-95_172_2795)"/>
<path d="M201 67L201.349 67L201.349 66.651L201 66.651L201 67ZM167.5 67.349L201 67.349L201 66.651L167.5 66.651L167.5 67.349ZM200.651 67L200.651 100.5L201.349 100.5L201.349 67L200.651 67Z" fill="#D9C8BA" mask="url(#path-193-inside-96_172_2795)"/>
<path d="M234.5 569.5L234.849 569.5L234.849 569.151L234.5 569.151L234.5 569.5ZM201 569.849L234.5 569.849L234.5 569.151L201 569.151L201 569.849ZM234.151 569.5L234.151 603L234.849 603L234.849 569.5L234.151 569.5Z" fill="#D9C8BA" mask="url(#path-195-inside-97_172_2795)"/>
<mask id="path-197-inside-98_172_2795" fill="white">
<path d="M201 569.5L201 536L234.5 536L234.5 569.5L201 569.5Z"/>
</mask>
<path d="M201 569.5L201 536L234.5 536L234.5 569.5L201 569.5Z" fill="#E6D2C2"/>
<path d="M234.5 536L234.849 536L234.849 535.651L234.5 535.651L234.5 536ZM201 536.349L234.5 536.349L234.5 535.651L201 535.651L201 536.349ZM234.151 536L234.151 569.5L234.849 569.5L234.849 536L234.151 536Z" fill="#D9C8BA" mask="url(#path-197-inside-98_172_2795)"/>
<path d="M234.5 502.5L234.849 502.5L234.849 502.151L234.5 502.151L234.5 502.5ZM201 502.849L234.5 502.849L234.5 502.151L201 502.151L201 502.849ZM234.151 502.5L234.151 536L234.849 536L234.849 502.5L234.151 502.5Z" fill="#D9C8BA" mask="url(#path-199-inside-99_172_2795)"/>
<path d="M234.5 469L234.849 469L234.849 468.651L234.5 468.651L234.5 469ZM201 469.349L234.5 469.349L234.5 468.651L201 468.651L201 469.349ZM234.151 469L234.151 502.5L234.849 502.5L234.849 469L234.151 469Z" fill="#D9C8BA" mask="url(#path-201-inside-100_172_2795)"/>
<path d="M234.5 435.5L234.849 435.5L234.849 435.151L234.5 435.151L234.5 435.5ZM201 435.849L234.5 435.849L234.5 435.151L201 435.151L201 435.849ZM234.151 435.5L234.151 469L234.849 469L234.849 435.5L234.151 435.5Z" fill="#D9C8BA" mask="url(#path-203-inside-101_172_2795)"/>
<path d="M234.5 402L234.849 402L234.849 401.651L234.5 401.651L234.5 402ZM201 402.349L234.5 402.349L234.5 401.651L201 401.651L201 402.349ZM234.151 402L234.151 435.5L234.849 435.5L234.849 402L234.151 402Z" fill="#D9C8BA" mask="url(#path-205-inside-102_172_2795)"/>
<path d="M234.5 368.5L234.849 368.5L234.849 368.151L234.5 368.151L234.5 368.5ZM201 368.849L234.5 368.849L234.5 368.151L201 368.151L201 368.849ZM234.151 368.5L234.151 402L234.849 402L234.849 368.5L234.151 368.5Z" fill="#D9C8BA" mask="url(#path-207-inside-103_172_2795)"/>
<path d="M234.5 335L234.849 335L234.849 334.651L234.5 334.651L234.5 335ZM201 335.349L234.5 335.349L234.5 334.651L201 334.651L201 335.349ZM234.151 335L234.151 368.5L234.849 368.5L234.849 335L234.151 335Z" fill="#D9C8BA" mask="url(#path-209-inside-104_172_2795)"/>
<path d="M234.5 301.5L234.849 301.5L234.849 301.151L234.5 301.151L234.5 301.5ZM201 301.849L234.5 301.849L234.5 301.151L201 301.151L201 301.849ZM234.151 301.5L234.151 335L234.849 335L234.849 301.5L234.151 301.5Z" fill="#D9C8BA" mask="url(#path-211-inside-105_172_2795)"/>
<path d="M234.5 268L234.849 268L234.849 267.651L234.5 267.651L234.5 268ZM201 268.349L234.5 268.349L234.5 267.651L201 267.651L201 268.349ZM234.151 268L234.151 301.5L234.849 301.5L234.849 268L234.151 268Z" fill="#D9C8BA" mask="url(#path-213-inside-106_172_2795)"/>
<path d="M234.5 234.5L234.849 234.5L234.849 234.151L234.5 234.151L234.5 234.5ZM201 234.849L234.5 234.849L234.5 234.151L201 234.151L201 234.849ZM234.151 234.5L234.151 268L234.849 268L234.849 234.5L234.151 234.5Z" fill="#D9C8BA" mask="url(#path-215-inside-107_172_2795)"/>
<path d="M234.5 201L234.849 201L234.849 200.651L234.5 200.651L234.5 201ZM201 201.349L234.5 201.349L234.5 200.651L201 200.651L201 201.349ZM234.151 201L234.151 234.5L234.849 234.5L234.849 201L234.151 201Z" fill="#D9C8BA" mask="url(#path-217-inside-108_172_2795)"/>
<path d="M234.5 167.5L234.849 167.5L234.849 167.151L234.5 167.151L234.5 167.5ZM201 167.849L234.5 167.849L234.5 167.151L201 167.151L201 167.849ZM234.151 167.5L234.151 201L234.849 201L234.849 167.5L234.151 167.5Z" fill="#D9C8BA" mask="url(#path-219-inside-109_172_2795)"/>
<path d="M234.5 134L234.849 134L234.849 133.651L234.5 133.651L234.5 134ZM201 134.349L234.5 134.349L234.5 133.651L201 133.651L201 134.349ZM234.151 134L234.151 167.5L234.849 167.5L234.849 134L234.151 134Z" fill="#D9C8BA" mask="url(#path-221-inside-110_172_2795)"/>
<mask id="path-223-inside-111_172_2795" fill="white">
<path d="M201 134L201 100.5L234.5 100.5L234.5 134L201 134Z"/>
</mask>
<path d="M201 134L201 100.5L234.5 100.5L234.5 134L201 134Z" fill="#E6D2C2"/>
<path d="M234.5 100.5L234.849 100.5L234.849 100.151L234.5 100.151L234.5 100.5ZM201 100.849L234.5 100.849L234.5 100.151L201 100.151L201 100.849ZM234.151 100.5L234.151 134L234.849 134L234.849 100.5L234.151 100.5Z" fill="#D9C8BA" mask="url(#path-223-inside-111_172_2795)"/>
<path d="M234.5 67L234.849 67L234.849 66.651L234.5 66.651L234.5 67ZM201 67.349L234.5 67.349L234.5 66.651L201 66.651L201 67.349ZM234.151 67L234.151 100.5L234.849 100.5L234.849 67L234.151 67Z" fill="#D9C8BA" mask="url(#path-225-inside-112_172_2795)"/>
<path d="M268 569.5L268.349 569.5L268.349 569.151L268 569.151L268 569.5ZM234.5 569.849L268 569.849L268 569.151L234.5 569.151L234.5 569.849ZM267.651 569.5L267.651 603L268.349 603L268.349 569.5L267.651 569.5Z" fill="#D9C8BA" mask="url(#path-227-inside-113_172_2795)"/>
<path d="M268 536L268.349 536L268.349 535.651L268 535.651L268 536ZM234.5 536.349L268 536.349L268 535.651L234.5 535.651L234.5 536.349ZM267.651 536L267.651 569.5L268.349 569.5L268.349 536L267.651 536Z" fill="#D9C8BA" mask="url(#path-229-inside-114_172_2795)"/>
<path d="M268 502.5L268.349 502.5L268.349 502.151L268 502.151L268 502.5ZM234.5 502.849L268 502.849L268 502.151L234.5 502.151L234.5 502.849ZM267.651 502.5L267.651 536L268.349 536L268.349 502.5L267.651 502.5Z" fill="#D9C8BA" mask="url(#path-231-inside-115_172_2795)"/>
<path d="M268 469L268.349 469L268.349 468.651L268 468.651L268 469ZM234.5 469.349L268 469.349L268 468.651L234.5 468.651L234.5 469.349ZM267.651 469L267.651 502.5L268.349 502.5L268.349 469L267.651 469Z" fill="#D9C8BA" mask="url(#path-233-inside-116_172_2795)"/>
<path d="M268 435.5L268.349 435.5L268.349 435.151L268 435.151L268 435.5ZM234.5 435.849L268 435.849L268 435.151L234.5 435.151L234.5 435.849ZM267.651 435.5L267.651 469L268.349 469L268.349 435.5L267.651 435.5Z" fill="#D9C8BA" mask="url(#path-235-inside-117_172_2795)"/>
<path d="M268 402L268.349 402L268.349 401.651L268 401.651L268 402ZM234.5 402.349L268 402.349L268 401.651L234.5 401.651L234.5 402.349ZM267.651 402L267.651 435.5L268.349 435.5L268.349 402L267.651 402Z" fill="#D9C8BA" mask="url(#path-237-inside-118_172_2795)"/>
<mask id="path-239-inside-119_172_2795" fill="white">
<path d="M234.5 402L234.5 368.5L268 368.5L268 402L234.5 402Z"/>
</mask>
<path d="M234.5 402L234.5 368.5L268 368.5L268 402L234.5 402Z" fill="#E6D2C2"/>
<path d="M268 368.5L268.349 368.5L268.349 368.151L268 368.151L268 368.5ZM234.5 368.849L268 368.849L268 368.151L234.5 368.151L234.5 368.849ZM267.651 368.5L267.651 402L268.349 402L268.349 368.5L267.651 368.5Z" fill="#D9C8BA" mask="url(#path-239-inside-119_172_2795)"/>
<path d="M268 335L268.349 335L268.349 334.651L268 334.651L268 335ZM234.5 335.349L268 335.349L268 334.651L234.5 334.651L234.5 335.349ZM267.651 335L267.651 368.5L268.349 368.5L268.349 335L267.651 335Z" fill="#D9C8BA" mask="url(#path-241-inside-120_172_2795)"/>
<path d="M268 301.5L268.349 301.5L268.349 301.151L268 301.151L268 301.5ZM234.5 301.849L268 301.849L268 301.151L234.5 301.151L234.5 301.849ZM267.651 301.5L267.651 335L268.349 335L268.349 301.5L267.651 301.5Z" fill="#D9C8BA" mask="url(#path-243-inside-121_172_2795)"/>
<path d="M268 268L268.349 268L268.349 267.651L268 267.651L268 268ZM234.5 268.349L268 268.349L268 267.651L234.5 267.651L234.5 268.349ZM267.651 268L267.651 301.5L268.349 301.5L268.349 268L267.651 268Z" fill="#D9C8BA" mask="url(#path-245-inside-122_172_2795)"/>
<path d="M268 234.5L268.349 234.5L268.349 234.151L268 234.151L268 234.5ZM234.5 234.849L268 234.849L268 234.151L234.5 234.151L234.5 234.849ZM267.651 234.5L267.651 268L268.349 268L268.349 234.5L267.651 234.5Z" fill="#D9C8BA" mask="url(#path-247-inside-123_172_2795)"/>
<path d="M268 201L268.349 201L268.349 200.651L268 200.651L268 201ZM234.5 201.349L268 201.349L268 200.651L234.5 200.651L234.5 201.349ZM267.651 201L267.651 234.5L268.349 234.5L268.349 201L267.651 201Z" fill="#D9C8BA" mask="url(#path-249-inside-124_172_2795)"/>
<mask id="path-251-inside-125_172_2795" fill="white">
<path d="M234.5 201L234.5 167.5L268 167.5L268 201L234.5 201Z"/>
</mask>
<path d="M234.5 201L234.5 167.5L268 167.5L268 201L234.5 201Z" fill="#E6D2C2"/>
<path d="M268 167.5L268.349 167.5L268.349 167.151L268 167.151L268 167.5ZM234.5 167.849L268 167.849L268 167.151L234.5 167.151L234.5 167.849ZM267.651 167.5L267.651 201L268.349 201L268.349 167.5L267.651 167.5Z" fill="#D9C8BA" mask="url(#path-251-inside-125_172_2795)"/>
<path d="M268 134L268.349 134L268.349 133.651L268 133.651L268 134ZM234.5 134.349L268 134.349L268 133.651L234.5 133.651L234.5 134.349ZM267.651 134L267.651 167.5L268.349 167.5L268.349 134L267.651 134Z" fill="#D9C8BA" mask="url(#path-253-inside-126_172_2795)"/>
<path d="M268 100.5L268.349 100.5L268.349 100.151L268 100.151L268 100.5ZM234.5 100.849L268 100.849L268 100.151L234.5 100.151L234.5 100.849ZM267.651 100.5L267.651 134L268.349 134L268.349 100.5L267.651 100.5Z" fill="#D9C8BA" mask="url(#path-255-inside-127_172_2795)"/>
<path d="M268 67L268.349 67L268.349 66.651L268 66.651L268 67ZM234.5 67.349L268 67.349L268 66.651L234.5 66.651L234.5 67.349ZM267.651 67L267.651 100.5L268.349 100.5L268.349 67L267.651 67Z" fill="#D9C8BA" mask="url(#path-257-inside-128_172_2795)"/>
<path d="M301.5 569.5L301.849 569.5L301.849 569.151L301.5 569.151L301.5 569.5ZM268 569.849L301.5 569.849L301.5 569.151L268 569.151L268 569.849ZM301.151 569.5L301.151 603L301.849 603L301.849 569.5L301.151 569.5Z" fill="#D9C8BA" mask="url(#path-259-inside-129_172_2795)"/>
<path d="M301.5 536L301.849 536L301.849 535.651L301.5 535.651L301.5 536ZM268 536.349L301.5 536.349L301.5 535.651L268 535.651L268 536.349ZM301.151 536L301.151 569.5L301.849 569.5L301.849 536L301.151 536Z" fill="#D9C8BA" mask="url(#path-261-inside-130_172_2795)"/>
<path d="M301.5 502.5L301.849 502.5L301.849 502.151L301.5 502.151L301.5 502.5ZM268 502.849L301.5 502.849L301.5 502.151L268 502.151L268 502.849ZM301.151 502.5L301.151 536L301.849 536L301.849 502.5L301.151 502.5Z" fill="#D9C8BA" mask="url(#path-263-inside-131_172_2795)"/>
<mask id="path-265-inside-132_172_2795" fill="white">
<path d="M268 502.5L268 469L301.5 469L301.5 502.5L268 502.5Z"/>
</mask>
<path d="M268 502.5L268 469L301.5 469L301.5 502.5L268 502.5Z" fill="#E6D2C2"/>
<path d="M301.5 469L301.849 469L301.849 468.651L301.5 468.651L301.5 469ZM268 469.349L301.5 469.349L301.5 468.651L268 468.651L268 469.349ZM301.151 469L301.151 502.5L301.849 502.5L301.849 469L301.151 469Z" fill="#D9C8BA" mask="url(#path-265-inside-132_172_2795)"/>
<path d="M301.5 435.5L301.849 435.5L301.849 435.151L301.5 435.151L301.5 435.5ZM268 435.849L301.5 435.849L301.5 435.151L268 435.151L268 435.849ZM301.151 435.5L301.151 469L301.849 469L301.849 435.5L301.151 435.5Z" fill="#D9C8BA" mask="url(#path-267-inside-133_172_2795)"/>
<path d="M301.5 402L301.849 402L301.849 401.651L301.5 401.651L301.5 402ZM268 402.349L301.5 402.349L301.5 401.651L268 401.651L268 402.349ZM301.151 402L301.151 435.5L301.849 435.5L301.849 402L301.151 402Z" fill="#D9C8BA" mask="url(#path-269-inside-134_172_2795)"/>
<path d="M301.5 368.5L301.849 368.5L301.849 368.151L301.5 368.151L301.5 368.5ZM268 368.849L301.5 368.849L301.5 368.151L268 368.151L268 368.849ZM301.151 368.5L301.151 402L301.849 402L301.849 368.5L301.151 368.5Z" fill="#D9C8BA" mask="url(#path-271-inside-135_172_2795)"/>
<path d="M301.5 335L301.849 335L301.849 334.651L301.5 334.651L301.5 335ZM268 335.349L301.5 335.349L301.5 334.651L268 334.651L268 335.349ZM301.151 335L301.151 368.5L301.849 368.5L301.849 335L301.151 335Z" fill="#D9C8BA" mask="url(#path-273-inside-136_172_2795)"/>
<path d="M301.5 301.5L301.849 301.5L301.849 301.151L301.5 301.151L301.5 301.5ZM268 301.849L301.5 301.849L301.5 301.151L268 301.151L268 301.849ZM301.151 301.5L301.151 335L301.849 335L301.849 301.5L301.151 301.5Z" fill="#D9C8BA" mask="url(#path-275-inside-137_172_2795)"/>
<mask id="path-277-inside-138_172_2795" fill="white">
<path d="M268 301.5L268 268L301.5 268L301.5 301.5L268 301.5Z"/>
</mask>
<path d="M268 301.5L268 268L301.5 268L301.5 301.5L268 301.5Z" fill="#E6D2C2"/>
<path d="M301.5 268L301.849 268L301.849 267.651L301.5 267.651L301.5 268ZM268 268.349L301.5 268.349L301.5 267.651L268 267.651L268 268.349ZM301.151 268L301.151 301.5L301.849 301.5L301.849 268L301.151 268Z" fill="#D9C8BA" mask="url(#path-277-inside-138_172_2795)"/>
<path d="M301.5 234.5L301.849 234.5L301.849 234.151L301.5 234.151L301.5 234.5ZM268 234.849L301.5 234.849L301.5 234.151L268 234.151L268 234.849ZM301.151 234.5L301.151 268L301.849 268L301.849 234.5L301.151 234.5Z" fill="#D9C8BA" mask="url(#path-279-inside-139_172_2795)"/>
<path d="M301.5 201L301.849 201L301.849 200.651L301.5 200.651L301.5 201ZM268 201.349L301.5 201.349L301.5 200.651L268 200.651L268 201.349ZM301.151 201L301.151 234.5L301.849 234.5L301.849 201L301.151 201Z" fill="#D9C8BA" mask="url(#path-281-inside-140_172_2795)"/>
<path d="M301.5 167.5L301.849 167.5L301.849 167.151L301.5 167.151L301.5 167.5ZM268 167.849L301.5 167.849L301.5 167.151L268 167.151L268 167.849ZM301.151 167.5L301.151 201L301.849 201L301.849 167.5L301.151 167.5Z" fill="#D9C8BA" mask="url(#path-283-inside-141_172_2795)"/>
<path d="M301.5 134L301.849 134L301.849 133.651L301.5 133.651L301.5 134ZM268 134.349L301.5 134.349L301.5 133.651L268 133.651L268 134.349ZM301.151 134L301.151 167.5L301.849 167.5L301.849 134L301.151 134Z" fill="#D9C8BA" mask="url(#path-285-inside-142_172_2795)"/>
<path d="M301.5 100.5L301.849 100.5L301.849 100.151L301.5 100.151L301.5 100.5ZM268 100.849L301.5 100.849L301.5 100.151L268 100.151L268 100.849ZM301.151 100.5L301.151 134L301.849 134L301.849 100.5L301.151 100.5Z" fill="#D9C8BA" mask="url(#path-287-inside-143_172_2795)"/>
<path d="M301.5 67L301.849 67L301.849 66.651L301.5 66.651L301.5 67ZM268 67.349L301.5 67.349L301.5 66.651L268 66.651L268 67.349ZM301.151 67L301.151 100.5L301.849 100.5L301.849 67L301.151 67Z" fill="#D9C8BA" mask="url(#path-289-inside-144_172_2795)"/>
<path d="M335 569.5L335.349 569.5L335.349 569.151L335 569.151L335 569.5ZM301.5 569.849L335 569.849L335 569.151L301.5 569.151L301.5 569.849ZM334.651 569.5L334.651 603L335.349 603L335.349 569.5L334.651 569.5Z" fill="#D9C8BA" mask="url(#path-291-inside-145_172_2795)"/>
<path d="M335 536L335.349 536L335.349 535.651L335 535.651L335 536ZM301.5 536.349L335 536.349L335 535.651L301.5 535.651L301.5 536.349ZM334.651 536L334.651 569.5L335.349 569.5L335.349 536L334.651 536Z" fill="#D9C8BA" mask="url(#path-293-inside-146_172_2795)"/>
<path d="M335 502.5L335.349 502.5L335.349 502.151L335 502.151L335 502.5ZM301.5 502.849L335 502.849L335 502.151L301.5 502.151L301.5 502.849ZM334.651 502.5L334.651 536L335.349 536L335.349 502.5L334.651 502.5Z" fill="#D9C8BA" mask="url(#path-295-inside-147_172_2795)"/>
<path d="M335 469L335.349 469L335.349 468.651L335 468.651L335 469ZM301.5 469.349L335 469.349L335 468.651L301.5 468.651L301.5 469.349ZM334.651 469L334.651 502.5L335.349 502.5L335.349 469L334.651 469Z" fill="#D9C8BA" mask="url(#path-297-inside-148_172_2795)"/>
<path d="M335 435.5L335.349 435.5L335.349 435.151L335 435.151L335 435.5ZM301.5 435.849L335 435.849L335 435.151L301.5 435.151L301.5 435.849ZM334.651 435.5L334.651 469L335.349 469L335.349 435.5L334.651 435.5Z" fill="#D9C8BA" mask="url(#path-299-inside-149_172_2795)"/>
<path d="M335 402L335.349 402L335.349 401.651L335 401.651L335 402ZM301.5 402.349L335 402.349L335 401.651L301.5 401.651L301.5 402.349ZM334.651 402L334.651 435.5L335.349 435.5L335.349 402L334.651 402Z" fill="#D9C8BA" mask="url(#path-301-inside-150_172_2795)"/>
<path d="M335 368.5L335.349 368.5L335.349 368.151L335 368.151L335 368.5ZM301.5 368.849L335 368.849L335 368.151L301.5 368.151L301.5 368.849ZM334.651 368.5L334.651 402L335.349 402L335.349 368.5L334.651 368.5Z" fill="#D9C8BA" mask="url(#path-303-inside-151_172_2795)"/>
<path d="M335 335L335.349 335L335.349 334.651L335 334.651L335 335ZM301.5 335.349L335 335.349L335 334.651L301.5 334.651L301.5 335.349ZM334.651 335L334.651 368.5L335.349 368.5L335.349 335L334.651 335Z" fill="#D9C8BA" mask="url(#path-305-inside-152_172_2795)"/>
<path d="M335 301.5L335.349 301.5L335.349 301.151L335 301.151L335 301.5ZM301.5 301.849L335 301.849L335 301.151L301.5 301.151L301.5 301.849ZM334.651 301.5L334.651 335L335.349 335L335.349 301.5L334.651 301.5Z" fill="#D9C8BA" mask="url(#path-307-inside-153_172_2795)"/>
<path d="M335 268L335.349 268L335.349 267.651L335 267.651L335 268ZM301.5 268.349L335 268.349L335 267.651L301.5 267.651L301.5 268.349ZM334.651 268L334.651 301.5L335.349 301.5L335.349 268L334.651 268Z" fill="#D9C8BA" mask="url(#path-309-inside-154_172_2795)"/>
<path d="M335 234.5L335.349 234.5L335.349 234.151L335 234.151L335 234.5ZM301.5 234.849L335 234.849L335 234.151L301.5 234.151L301.5 234.849ZM334.651 234.5L334.651 268L335.349 268L335.349 234.5L334.651 234.5Z" fill="#D9C8BA" mask="url(#path-311-inside-155_172_2795)"/>
<path d="M335 201L335.349 201L335.349 200.651L335 200.651L335 201ZM301.5 201.349L335 201.349L335 200.651L301.5 200.651L301.5 201.349ZM334.651 201L334.651 234.5L335.349 234.5L335.349 201L334.651 201Z" fill="#D9C8BA" mask="url(#path-313-inside-156_172_2795)"/>
<path d="M335 167.5L335.349 167.5L335.349 167.151L335 167.151L335 167.5ZM301.5 167.849L335 167.849L335 167.151L301.5 167.151L301.5 167.849ZM334.651 167.5L334.651 201L335.349 201L335.349 167.5L334.651 167.5Z" fill="#D9C8BA" mask="url(#path-315-inside-157_172_2795)"/>
<path d="M335 134L335.349 134L335.349 133.651L335 133.651L335 134ZM301.5 134.349L335 134.349L335 133.651L301.5 133.651L301.5 134.349ZM334.651 134L334.651 167.5L335.349 167.5L335.349 134L334.651 134Z" fill="#D9C8BA" mask="url(#path-317-inside-158_172_2795)"/>
<path d="M335 100.5L335.349 100.5L335.349 100.151L335 100.151L335 100.5ZM301.5 100.849L335 100.849L335 100.151L301.5 100.151L301.5 100.849ZM334.651 100.5L334.651 134L335.349 134L335.349 100.5L334.651 100.5Z" fill="#D9C8BA" mask="url(#path-319-inside-159_172_2795)"/>
<mask id="path-321-inside-160_172_2795" fill="white">
<path d="M301.5 100.5L301.5 67L335 67L335 100.5L301.5 100.5Z"/>
</mask>
<path d="M301.5 100.5L301.5 67L335 67L335 100.5L301.5 100.5Z" fill="#E6D2C2"/>
<path d="M335 67L335.349 67L335.349 66.651L335 66.651L335 67ZM301.5 67.349L335 67.349L335 66.651L301.5 66.651L301.5 67.349ZM334.651 67L334.651 100.5L335.349 100.5L335.349 67L334.651 67Z" fill="#D9C8BA" mask="url(#path-321-inside-160_172_2795)"/>
<path d="M368.5 569.5L368.849 569.5L368.849 569.151L368.5 569.151L368.5 569.5ZM335 569.849L368.5 569.849L368.5 569.151L335 569.151L335 569.849ZM368.151 569.5L368.151 603L368.849 603L368.849 569.5L368.151 569.5Z" fill="#D9C8BA" mask="url(#path-323-inside-161_172_2795)"/>
<path d="M368.5 536L368.849 536L368.849 535.651L368.5 535.651L368.5 536ZM335 536.349L368.5 536.349L368.5 535.651L335 535.651L335 536.349ZM368.151 536L368.151 569.5L368.849 569.5L368.849 536L368.151 536Z" fill="#D9C8BA" mask="url(#path-325-inside-162_172_2795)"/>
<path d="M368.5 502.5L368.849 502.5L368.849 502.151L368.5 502.151L368.5 502.5ZM335 502.849L368.5 502.849L368.5 502.151L335 502.151L335 502.849ZM368.151 502.5L368.151 536L368.849 536L368.849 502.5L368.151 502.5Z" fill="#D9C8BA" mask="url(#path-327-inside-163_172_2795)"/>
<path d="M368.5 469L368.849 469L368.849 468.651L368.5 468.651L368.5 469ZM335 469.349L368.5 469.349L368.5 468.651L335 468.651L335 469.349ZM368.151 469L368.151 502.5L368.849 502.5L368.849 469L368.151 469Z" fill="#D9C8BA" mask="url(#path-329-inside-164_172_2795)"/>
<mask id="path-331-inside-165_172_2795" fill="white">
<path d="M335 469L335 435.5L368.5 435.5L368.5 469L335 469Z"/>
</mask>
<path d="M335 469L335 435.5L368.5 435.5L368.5 469L335 469Z" fill="#E6D2C2"/>
<path d="M368.5 435.5L368.849 435.5L368.849 435.151L368.5 435.151L368.5 435.5ZM335 435.849L368.5 435.849L368.5 435.151L335 435.151L335 435.849ZM368.151 435.5L368.151 469L368.849 469L368.849 435.5L368.151 435.5Z" fill="#D9C8BA" mask="url(#path-331-inside-165_172_2795)"/>
<path d="M368.5 402L368.849 402L368.849 401.651L368.5 401.651L368.5 402ZM335 402.349L368.5 402.349L368.5 401.651L335 401.651L335 402.349ZM368.151 402L368.151 435.5L368.849 435.5L368.849 402L368.151 402Z" fill="#D9C8BA" mask="url(#path-333-inside-166_172_2795)"/>
<path d="M368.5 368.5L368.849 368.5L368.849 368.151L368.5 368.151L368.5 368.5ZM335 368.849L368.5 368.849L368.5 368.151L335 368.151L335 368.849ZM368.151 368.5L368.151 402L368.849 402L368.849 368.5L368.151 368.5Z" fill="#D9C8BA" mask="url(#path-335-inside-167_172_2795)"/>
<path d="M368.5 335L368.849 335L368.849 334.651L368.5 334.651L368.5 335ZM335 335.349L368.5 335.349L368.5 334.651L335 334.651L335 335.349ZM368.151 335L368.151 368.5L368.849 368.5L368.849 335L368.151 335Z" fill="#D9C8BA" mask="url(#path-337-inside-168_172_2795)"/>
<mask id="path-339-inside-169_172_2795" fill="white">
<path d="M335 335L335 301.5L368.5 301.5L368.5 335L335 335Z"/>
</mask>
<path d="M335 335L335 301.5L368.5 301.5L368.5 335L335 335Z" fill="#E6D2C2"/>
<path d="M368.5 301.5L368.849 301.5L368.849 301.151L368.5 301.151L368.5 301.5ZM335 301.849L368.5 301.849L368.5 301.151L335 301.151L335 301.849ZM368.151 301.5L368.151 335L368.849 335L368.849 301.5L368.151 301.5Z" fill="#D9C8BA" mask="url(#path-339-inside-169_172_2795)"/>
<path d="M368.5 268L368.849 268L368.849 267.651L368.5 267.651L368.5 268ZM335 268.349L368.5 268.349L368.5 267.651L335 267.651L335 268.349ZM368.151 268L368.151 301.5L368.849 301.5L368.849 268L368.151 268Z" fill="#D9C8BA" mask="url(#path-341-inside-170_172_2795)"/>
<path d="M368.5 234.5L368.849 234.5L368.849 234.151L368.5 234.151L368.5 234.5ZM335 234.849L368.5 234.849L368.5 234.151L335 234.151L335 234.849ZM368.151 234.5L368.151 268L368.849 268L368.849 234.5L368.151 234.5Z" fill="#D9C8BA" mask="url(#path-343-inside-171_172_2795)"/>
<path d="M368.5 201L368.849 201L368.849 200.651L368.5 200.651L368.5 201ZM335 201.349L368.5 201.349L368.5 200.651L335 200.651L335 201.349ZM368.151 201L368.151 234.5L368.849 234.5L368.849 201L368.151 201Z" fill="#D9C8BA" mask="url(#path-345-inside-172_172_2795)"/>
<path d="M368.5 167.5L368.849 167.5L368.849 167.151L368.5 167.151L368.5 167.5ZM335 167.849L368.5 167.849L368.5 167.151L335 167.151L335 167.849ZM368.151 167.5L368.151 201L368.849 201L368.849 167.5L368.151 167.5Z" fill="#D9C8BA" mask="url(#path-347-inside-173_172_2795)"/>
<path d="M368.5 134L368.849 134L368.849 133.651L368.5 133.651L368.5 134ZM335 134.349L368.5 134.349L368.5 133.651L335 133.651L335 134.349ZM368.151 134L368.151 167.5L368.849 167.5L368.849 134L368.151 134Z" fill="#D9C8BA" mask="url(#path-349-inside-174_172_2795)"/>
<path d="M368.5 100.5L368.849 100.5L368.849 100.151L368.5 100.151L368.5 100.5ZM335 100.849L368.5 100.849L368.5 100.151L335 100.151L335 100.849ZM368.151 100.5L368.151 134L368.849 134L368.849 100.5L368.151 100.5Z" fill="#D9C8BA" mask="url(#path-351-inside-175_172_2795)"/>
<path d="M368.5 67L368.849 67L368.849 66.651L368.5 66.651L368.5 67ZM335 67.349L368.5 67.349L368.5 66.651L335 66.651L335 67.349ZM368.151 67L368.151 100.5L368.849 100.5L368.849 67L368.151 67Z" fill="#D9C8BA" mask="url(#path-353-inside-176_172_2795)"/>
<mask id="path-355-inside-177_172_2795" fill="white">
<path d="M368.5 603L368.5 569.5L402 569.5L402 603L368.5 603Z"/>
</mask>
<path d="M368.5 603L368.5 569.5L402 569.5L402 603L368.5 603Z" fill="#E6D2C2"/>
<path d="M402 569.5L402.349 569.5L402.349 569.151L402 569.151L402 569.5ZM368.5 569.849L402 569.849L402 569.151L368.5 569.151L368.5 569.849ZM401.651 569.5L401.651 603L402.349 603L402.349 569.5L401.651 569.5Z" fill="#D9C8BA" mask="url(#path-355-inside-177_172_2795)"/>
<path d="M402 536L402.349 536L402.349 535.651L402 535.651L402 536ZM368.5 536.349L402 536.349L402 535.651L368.5 535.651L368.5 536.349ZM401.651 536L401.651 569.5L402.349 569.5L402.349 536L401.651 536Z" fill="#D9C8BA" mask="url(#path-357-inside-178_172_2795)"/>
<path d="M402 502.5L402.349 502.5L402.349 502.151L402 502.151L402 502.5ZM368.5 502.849L402 502.849L402 502.151L368.5 502.151L368.5 502.849ZM401.651 502.5L401.651 536L402.349 536L402.349 502.5L401.651 502.5Z" fill="#D9C8BA" mask="url(#path-359-inside-179_172_2795)"/>
<path d="M402 469L402.349 469L402.349 468.651L402 468.651L402 469ZM368.5 469.349L402 469.349L402 468.651L368.5 468.651L368.5 469.349ZM401.651 469L401.651 502.5L402.349 502.5L402.349 469L401.651 469Z" fill="#D9C8BA" mask="url(#path-361-inside-180_172_2795)"/>
<path d="M402 435.5L402.349 435.5L402.349 435.151L402 435.151L402 435.5ZM368.5 435.849L402 435.849L402 435.151L368.5 435.151L368.5 435.849ZM401.651 435.5L401.651 469L402.349 469L402.349 435.5L401.651 435.5Z" fill="#D9C8BA" mask="url(#path-363-inside-181_172_2795)"/>
<path d="M402 402L402.349 402L402.349 401.651L402 401.651L402 402ZM368.5 402.349L402 402.349L402 401.651L368.5 401.651L368.5 402.349ZM401.651 402L401.651 435.5L402.349 435.5L402.349 402L401.651 402Z" fill="#D9C8BA" mask="url(#path-365-inside-182_172_2795)"/>
<path d="M402 368.5L402.349 368.5L402.349 368.151L402 368.151L402 368.5ZM368.5 368.849L402 368.849L402 368.151L368.5 368.151L368.5 368.849ZM401.651 368.5L401.651 402L402.349 402L402.349 368.5L401.651 368.5Z" fill="#D9C8BA" mask="url(#path-367-inside-183_172_2795)"/>
<path d="M402 335L402.349 335L402.349 334.651L402 334.651L402 335ZM368.5 335.349L402 335.349L402 334.651L368.5 334.651L368.5 335.349ZM401.651 335L401.651 368.5L402.349 368.5L402.349 335L401.651 335Z" fill="#D9C8BA" mask="url(#path-369-inside-184_172_2795)"/>
<path d="M402 301.5L402.349 301.5L402.349 301.151L402 301.151L402 301.5ZM368.5 301.849L402 301.849L402 301.151L368.5 301.151L368.5 301.849ZM401.651 301.5L401.651 335L402.349 335L402.349 301.5L401.651 301.5Z" fill="#D9C8BA" mask="url(#path-371-inside-185_172_2795)"/>
<path d="M402 268L402.349 268L402.349 267.651L402 267.651L402 268ZM368.5 268.349L402 268.349L402 267.651L368.5 267.651L368.5 268.349ZM401.651 268L401.651 301.5L402.349 301.5L402.349 268L401.651 268Z" fill="#D9C8BA" mask="url(#path-373-inside-186_172_2795)"/>
<path d="M402 234.5L402.349 234.5L402.349 234.151L402 234.151L402 234.5ZM368.5 234.849L402 234.849L402 234.151L368.5 234.151L368.5 234.849ZM401.651 234.5L401.651 268L402.349 268L402.349 234.5L401.651 234.5Z" fill="#D9C8BA" mask="url(#path-375-inside-187_172_2795)"/>
<path d="M402 201L402.349 201L402.349 200.651L402 200.651L402 201ZM368.5 201.349L402 201.349L402 200.651L368.5 200.651L368.5 201.349ZM401.651 201L401.651 234.5L402.349 234.5L402.349 201L401.651 201Z" fill="#D9C8BA" mask="url(#path-377-inside-188_172_2795)"/>
<mask id="path-379-inside-189_172_2795" fill="white">
<path d="M368.5 201L368.5 167.5L402 167.5L402 201L368.5 201Z"/>
</mask>
<path d="M368.5 201L368.5 167.5L402 167.5L402 201L368.5 201Z" fill="#E6D2C2"/>
<path d="M402 167.5L402.349 167.5L402.349 167.151L402 167.151L402 167.5ZM368.5 167.849L402 167.849L402 167.151L368.5 167.151L368.5 167.849ZM401.651 167.5L401.651 201L402.349 201L402.349 167.5L401.651 167.5Z" fill="#D9C8BA" mask="url(#path-379-inside-189_172_2795)"/>
<path d="M402 134L402.349 134L402.349 133.651L402 133.651L402 134ZM368.5 134.349L402 134.349L402 133.651L368.5 133.651L368.5 134.349ZM401.651 134L401.651 167.5L402.349 167.5L402.349 134L401.651 134Z" fill="#D9C8BA" mask="url(#path-381-inside-190_172_2795)"/>
<path d="M402 100.5L402.349 100.5L402.349 100.151L402 100.151L402 100.5ZM368.5 100.849L402 100.849L402 100.151L368.5 100.151L368.5 100.849ZM401.651 100.5L401.651 134L402.349 134L402.349 100.5L401.651 100.5Z" fill="#D9C8BA" mask="url(#path-383-inside-191_172_2795)"/>
<path d="M402 67L402.349 67L402.349 66.651L402 66.651L402 67ZM368.5 67.349L402 67.349L402 66.651L368.5 66.651L368.5 67.349ZM401.651 67L401.651 100.5L402.349 100.5L402.349 67L401.651 67Z" fill="#D9C8BA" mask="url(#path-385-inside-192_172_2795)"/>
</g>
<rect x="0.174479" y="669.826" width="669.651" height="502.151" transform="rotate(-90 0.174479 669.826)" stroke="#D9C8BA" stroke-width="0.348958"/>
</g>
</g>
<defs>
<radialGradient id="paint0_radial_172_2795" cx="0" cy="0" r="1" gradientUnits="userSpaceOnUse" gradientTransform="translate(251.25 -5.99027e-05) rotate(90) scale(502.5 262.273)">
<stop/>
<stop offset="0.953125" stop-opacity="0"/>
</radialGradient>
<clipPath id="clip0_172_2795">
<rect width="670" height="390" fill="white" transform="translate(0 670) rotate(-90)"/>
</clipPath>
<clipPath id="clip1_172_2795">
<rect y="670" width="670" height="502.5" transform="rotate(-90 0 670)" fill="white"/>
</clipPath>
</defs>
</svg>
