<svg width="390" height="502" viewBox="0 0 390 502" fill="none" xmlns="http://www.w3.org/2000/svg">
<g clip-path="url(#clip0_172_3179)">
<mask id="mask0_172_3179" style="mask-type:alpha" maskUnits="userSpaceOnUse" x="-57" y="0" width="504" height="503">
<rect width="502.5" height="502.5" transform="translate(-56.25)" fill="url(#paint0_radial_172_3179)"/>
</mask>
<g mask="url(#mask0_172_3179)">
<g clip-path="url(#clip1_172_3179)">
<path d="M27.5 33.5V33.849H27.849V33.5H27.5ZM27.151 0L27.151 33.5H27.849L27.849 0L27.151 0ZM27.5 33.151L-6 33.151V33.849L27.5 33.849V33.151Z" fill="#D9C8BA" mask="url(#path-3-inside-1_172_3179)"/>
<path d="M61 33.5V33.849H61.349V33.5H61ZM60.651 0L60.651 33.5H61.349L61.349 0L60.651 0ZM61 33.151L27.5 33.151V33.849L61 33.849V33.151Z" fill="#D9C8BA" mask="url(#path-5-inside-2_172_3179)"/>
<path d="M94.5 33.5V33.849H94.849V33.5H94.5ZM94.151 0V33.5H94.849V0L94.151 0ZM94.5 33.151L61 33.151V33.849L94.5 33.849V33.151Z" fill="#D9C8BA" mask="url(#path-7-inside-3_172_3179)"/>
<path d="M128 33.5V33.849H128.349V33.5H128ZM127.651 0V33.5H128.349V0L127.651 0ZM128 33.151L94.5 33.151V33.849L128 33.849V33.151Z" fill="#D9C8BA" mask="url(#path-9-inside-4_172_3179)"/>
<path d="M161.5 33.5V33.849H161.849V33.5H161.5ZM161.151 0V33.5H161.849V0L161.151 0ZM161.5 33.151L128 33.151V33.849L161.5 33.849V33.151Z" fill="#D9C8BA" mask="url(#path-11-inside-5_172_3179)"/>
<path d="M195 33.5V33.849H195.349V33.5H195ZM194.651 0V33.5H195.349V0L194.651 0ZM195 33.151L161.5 33.151V33.849L195 33.849V33.151Z" fill="#D9C8BA" mask="url(#path-13-inside-6_172_3179)"/>
<path d="M228.5 33.5V33.849H228.849V33.5H228.5ZM228.151 0V33.5H228.849V0L228.151 0ZM228.5 33.151L195 33.151V33.849L228.5 33.849V33.151Z" fill="#D9C8BA" mask="url(#path-15-inside-7_172_3179)"/>
<path d="M262 33.5V33.849H262.349V33.5H262ZM261.651 0V33.5H262.349V0L261.651 0ZM262 33.151L228.5 33.151V33.849L262 33.849V33.151Z" fill="#D9C8BA" mask="url(#path-17-inside-8_172_3179)"/>
<path d="M295.5 33.5V33.849H295.849V33.5H295.5ZM295.151 0V33.5H295.849V0L295.151 0ZM295.5 33.151L262 33.151V33.849L295.5 33.849V33.151Z" fill="#D9C8BA" mask="url(#path-19-inside-9_172_3179)"/>
<path d="M329 33.5V33.849H329.349V33.5H329ZM328.651 0V33.5H329.349V0L328.651 0ZM329 33.151L295.5 33.151V33.849L329 33.849V33.151Z" fill="#D9C8BA" mask="url(#path-21-inside-10_172_3179)"/>
<path d="M362.5 33.5V33.849H362.849V33.5H362.5ZM362.151 0V33.5H362.849V0L362.151 0ZM362.5 33.151L329 33.151V33.849L362.5 33.849V33.151Z" fill="#D9C8BA" mask="url(#path-23-inside-11_172_3179)"/>
<path d="M396 33.5V33.849H396.349V33.5H396ZM395.651 0V33.5H396.349V0L395.651 0ZM396 33.151L362.5 33.151V33.849L396 33.849V33.151Z" fill="#D9C8BA" mask="url(#path-25-inside-12_172_3179)"/>
<path d="M27.5 67V67.349H27.849V67H27.5ZM27.151 33.5L27.151 67H27.849L27.849 33.5H27.151ZM27.5 66.651H-6V67.349H27.5V66.651Z" fill="#D9C8BA" mask="url(#path-27-inside-13_172_3179)"/>
<mask id="path-29-inside-14_172_3179" fill="white">
<path d="M27.5 33.5L61 33.5L61 67H27.5L27.5 33.5Z"/>
</mask>
<path d="M27.5 33.5L61 33.5L61 67H27.5L27.5 33.5Z" fill="#E6D2C2"/>
<path d="M61 67V67.349H61.349V67H61ZM60.651 33.5L60.651 67H61.349L61.349 33.5H60.651ZM61 66.651H27.5V67.349H61V66.651Z" fill="#D9C8BA" mask="url(#path-29-inside-14_172_3179)"/>
<path d="M94.5 67V67.349H94.849V67H94.5ZM94.151 33.5V67H94.849V33.5H94.151ZM94.5 66.651H61V67.349H94.5V66.651Z" fill="#D9C8BA" mask="url(#path-31-inside-15_172_3179)"/>
<path d="M128 67V67.349H128.349V67H128ZM127.651 33.5V67H128.349V33.5H127.651ZM128 66.651H94.5V67.349H128V66.651Z" fill="#D9C8BA" mask="url(#path-33-inside-16_172_3179)"/>
<path d="M161.5 67V67.349H161.849V67H161.5ZM161.151 33.5V67H161.849V33.5H161.151ZM161.5 66.651H128V67.349H161.5V66.651Z" fill="#D9C8BA" mask="url(#path-35-inside-17_172_3179)"/>
<path d="M195 67V67.349H195.349V67H195ZM194.651 33.5V67H195.349V33.5H194.651ZM195 66.651H161.5V67.349H195V66.651Z" fill="#D9C8BA" mask="url(#path-37-inside-18_172_3179)"/>
<path d="M228.5 67V67.349H228.849V67H228.5ZM228.151 33.5V67H228.849V33.5H228.151ZM228.5 66.651H195V67.349H228.5V66.651Z" fill="#D9C8BA" mask="url(#path-39-inside-19_172_3179)"/>
<path d="M262 67V67.349H262.349V67H262ZM261.651 33.5V67H262.349V33.5H261.651ZM262 66.651H228.5V67.349H262V66.651Z" fill="#D9C8BA" mask="url(#path-41-inside-20_172_3179)"/>
<path d="M295.5 67V67.349H295.849V67H295.5ZM295.151 33.5V67H295.849V33.5H295.151ZM295.5 66.651H262V67.349H295.5V66.651Z" fill="#D9C8BA" mask="url(#path-43-inside-21_172_3179)"/>
<path d="M329 67V67.349H329.349V67H329ZM328.651 33.5V67H329.349V33.5H328.651ZM329 66.651H295.5V67.349H329V66.651Z" fill="#D9C8BA" mask="url(#path-45-inside-22_172_3179)"/>
<mask id="path-47-inside-23_172_3179" fill="white">
<path d="M329 33.5L362.5 33.5V67H329V33.5Z"/>
</mask>
<path d="M329 33.5L362.5 33.5V67H329V33.5Z" fill="#E6D2C2"/>
<path d="M362.5 67V67.349H362.849V67H362.5ZM362.151 33.5V67H362.849V33.5H362.151ZM362.5 66.651H329V67.349H362.5V66.651Z" fill="#D9C8BA" mask="url(#path-47-inside-23_172_3179)"/>
<path d="M396 67V67.349H396.349V67H396ZM395.651 33.5V67H396.349V33.5H395.651ZM396 66.651H362.5V67.349H396V66.651Z" fill="#D9C8BA" mask="url(#path-49-inside-24_172_3179)"/>
<path d="M27.5 100.5V100.849H27.849V100.5H27.5ZM27.151 67L27.151 100.5H27.849L27.849 67H27.151ZM27.5 100.151H-6V100.849H27.5V100.151Z" fill="#D9C8BA" mask="url(#path-51-inside-25_172_3179)"/>
<path d="M61 100.5V100.849H61.349V100.5H61ZM60.651 67L60.651 100.5H61.349L61.349 67H60.651ZM61 100.151H27.5V100.849H61V100.151Z" fill="#D9C8BA" mask="url(#path-53-inside-26_172_3179)"/>
<path d="M94.5 100.5V100.849H94.849V100.5H94.5ZM94.151 67V100.5H94.849V67H94.151ZM94.5 100.151H61V100.849H94.5V100.151Z" fill="#D9C8BA" mask="url(#path-55-inside-27_172_3179)"/>
<mask id="path-57-inside-28_172_3179" fill="white">
<path d="M94.5 67H128V100.5H94.5V67Z"/>
</mask>
<path d="M94.5 67H128V100.5H94.5V67Z" fill="#E6D2C2"/>
<path d="M128 100.5V100.849H128.349V100.5H128ZM127.651 67V100.5H128.349V67H127.651ZM128 100.151H94.5V100.849H128V100.151Z" fill="#D9C8BA" mask="url(#path-57-inside-28_172_3179)"/>
<path d="M161.5 100.5V100.849H161.849V100.5H161.5ZM161.151 67V100.5H161.849V67H161.151ZM161.5 100.151H128V100.849H161.5V100.151Z" fill="#D9C8BA" mask="url(#path-59-inside-29_172_3179)"/>
<path d="M195 100.5V100.849H195.349V100.5H195ZM194.651 67V100.5H195.349V67H194.651ZM195 100.151H161.5V100.849H195V100.151Z" fill="#D9C8BA" mask="url(#path-61-inside-30_172_3179)"/>
<path d="M228.5 100.5V100.849H228.849V100.5H228.5ZM228.151 67V100.5H228.849V67H228.151ZM228.5 100.151H195V100.849H228.5V100.151Z" fill="#D9C8BA" mask="url(#path-63-inside-31_172_3179)"/>
<mask id="path-65-inside-32_172_3179" fill="white">
<path d="M228.5 67H262V100.5H228.5V67Z"/>
</mask>
<path d="M228.5 67H262V100.5H228.5V67Z" fill="#E6D2C2"/>
<path d="M262 100.5V100.849H262.349V100.5H262ZM261.651 67V100.5H262.349V67H261.651ZM262 100.151H228.5V100.849H262V100.151Z" fill="#D9C8BA" mask="url(#path-65-inside-32_172_3179)"/>
<path d="M295.5 100.5V100.849H295.849V100.5H295.5ZM295.151 67V100.5H295.849V67H295.151ZM295.5 100.151H262V100.849H295.5V100.151Z" fill="#D9C8BA" mask="url(#path-67-inside-33_172_3179)"/>
<path d="M329 100.5V100.849H329.349V100.5H329ZM328.651 67V100.5H329.349V67H328.651ZM329 100.151H295.5V100.849H329V100.151Z" fill="#D9C8BA" mask="url(#path-69-inside-34_172_3179)"/>
<path d="M362.5 100.5V100.849H362.849V100.5H362.5ZM362.151 67V100.5H362.849V67H362.151ZM362.5 100.151H329V100.849H362.5V100.151Z" fill="#D9C8BA" mask="url(#path-71-inside-35_172_3179)"/>
<path d="M396 100.5V100.849H396.349V100.5H396ZM395.651 67V100.5H396.349V67H395.651ZM396 100.151H362.5V100.849H396V100.151Z" fill="#D9C8BA" mask="url(#path-73-inside-36_172_3179)"/>
<path d="M27.5 134V134.349H27.849V134H27.5ZM27.151 100.5L27.151 134H27.849L27.849 100.5H27.151ZM27.5 133.651H-6V134.349H27.5V133.651Z" fill="#D9C8BA" mask="url(#path-75-inside-37_172_3179)"/>
<path d="M61 134V134.349H61.349V134H61ZM60.651 100.5L60.651 134H61.349L61.349 100.5H60.651ZM61 133.651H27.5V134.349H61V133.651Z" fill="#D9C8BA" mask="url(#path-77-inside-38_172_3179)"/>
<path d="M94.5 134V134.349H94.849V134H94.5ZM94.151 100.5V134H94.849V100.5H94.151ZM94.5 133.651H61V134.349H94.5V133.651Z" fill="#D9C8BA" mask="url(#path-79-inside-39_172_3179)"/>
<path d="M128 134V134.349H128.349V134H128ZM127.651 100.5V134H128.349V100.5H127.651ZM128 133.651H94.5V134.349H128V133.651Z" fill="#D9C8BA" mask="url(#path-81-inside-40_172_3179)"/>
<path d="M161.5 134V134.349H161.849V134H161.5ZM161.151 100.5V134H161.849V100.5H161.151ZM161.5 133.651H128V134.349H161.5V133.651Z" fill="#D9C8BA" mask="url(#path-83-inside-41_172_3179)"/>
<path d="M195 134V134.349H195.349V134H195ZM194.651 100.5V134H195.349V100.5H194.651ZM195 133.651H161.5V134.349H195V133.651Z" fill="#D9C8BA" mask="url(#path-85-inside-42_172_3179)"/>
<path d="M228.5 134V134.349H228.849V134H228.5ZM228.151 100.5V134H228.849V100.5H228.151ZM228.5 133.651H195V134.349H228.5V133.651Z" fill="#D9C8BA" mask="url(#path-87-inside-43_172_3179)"/>
<path d="M262 134V134.349H262.349V134H262ZM261.651 100.5V134H262.349V100.5H261.651ZM262 133.651H228.5V134.349H262V133.651Z" fill="#D9C8BA" mask="url(#path-89-inside-44_172_3179)"/>
<path d="M295.5 134V134.349H295.849V134H295.5ZM295.151 100.5V134H295.849V100.5H295.151ZM295.5 133.651H262V134.349H295.5V133.651Z" fill="#D9C8BA" mask="url(#path-91-inside-45_172_3179)"/>
<path d="M329 134V134.349H329.349V134H329ZM328.651 100.5V134H329.349V100.5H328.651ZM329 133.651H295.5V134.349H329V133.651Z" fill="#D9C8BA" mask="url(#path-93-inside-46_172_3179)"/>
<mask id="path-95-inside-47_172_3179" fill="white">
<path d="M329 100.5H362.5V134H329V100.5Z"/>
</mask>
<path d="M329 100.5H362.5V134H329V100.5Z" fill="#E6D2C2"/>
<path d="M362.5 134V134.349H362.849V134H362.5ZM362.151 100.5V134H362.849V100.5H362.151ZM362.5 133.651H329V134.349H362.5V133.651Z" fill="#D9C8BA" mask="url(#path-95-inside-47_172_3179)"/>
<path d="M396 134V134.349H396.349V134H396ZM395.651 100.5V134H396.349V100.5H395.651ZM396 133.651H362.5V134.349H396V133.651Z" fill="#D9C8BA" mask="url(#path-97-inside-48_172_3179)"/>
<path d="M27.5 167.5V167.849H27.849V167.5H27.5ZM27.151 134L27.151 167.5H27.849L27.849 134H27.151ZM27.5 167.151H-6V167.849H27.5V167.151Z" fill="#D9C8BA" mask="url(#path-99-inside-49_172_3179)"/>
<path d="M61 167.5V167.849H61.349V167.5H61ZM60.651 134L60.651 167.5H61.349L61.349 134H60.651ZM61 167.151H27.5V167.849H61V167.151Z" fill="#D9C8BA" mask="url(#path-101-inside-50_172_3179)"/>
<path d="M94.5 167.5V167.849H94.849V167.5H94.5ZM94.151 134V167.5H94.849V134H94.151ZM94.5 167.151H61V167.849H94.5V167.151Z" fill="#D9C8BA" mask="url(#path-103-inside-51_172_3179)"/>
<path d="M128 167.5V167.849H128.349V167.5H128ZM127.651 134V167.5H128.349V134H127.651ZM128 167.151H94.5V167.849H128V167.151Z" fill="#D9C8BA" mask="url(#path-105-inside-52_172_3179)"/>
<mask id="path-107-inside-53_172_3179" fill="white">
<path d="M128 134H161.5V167.5H128V134Z"/>
</mask>
<path d="M128 134H161.5V167.5H128V134Z" fill="#E6D2C2"/>
<path d="M161.5 167.5V167.849H161.849V167.5H161.5ZM161.151 134V167.5H161.849V134H161.151ZM161.5 167.151H128V167.849H161.5V167.151Z" fill="#D9C8BA" mask="url(#path-107-inside-53_172_3179)"/>
<path d="M195 167.5V167.849H195.349V167.5H195ZM194.651 134V167.5H195.349V134H194.651ZM195 167.151H161.5V167.849H195V167.151Z" fill="#D9C8BA" mask="url(#path-109-inside-54_172_3179)"/>
<path d="M228.5 167.5V167.849H228.849V167.5H228.5ZM228.151 134V167.5H228.849V134H228.151ZM228.5 167.151H195V167.849H228.5V167.151Z" fill="#D9C8BA" mask="url(#path-111-inside-55_172_3179)"/>
<path d="M262 167.5V167.849H262.349V167.5H262ZM261.651 134V167.5H262.349V134H261.651ZM262 167.151H228.5V167.849H262V167.151Z" fill="#D9C8BA" mask="url(#path-113-inside-56_172_3179)"/>
<path d="M295.5 167.5V167.849H295.849V167.5H295.5ZM295.151 134V167.5H295.849V134H295.151ZM295.5 167.151H262V167.849H295.5V167.151Z" fill="#D9C8BA" mask="url(#path-115-inside-57_172_3179)"/>
<path d="M329 167.5V167.849H329.349V167.5H329ZM328.651 134V167.5H329.349V134H328.651ZM329 167.151H295.5V167.849H329V167.151Z" fill="#D9C8BA" mask="url(#path-117-inside-58_172_3179)"/>
<path d="M362.5 167.5V167.849H362.849V167.5H362.5ZM362.151 134V167.5H362.849V134H362.151ZM362.5 167.151H329V167.849H362.5V167.151Z" fill="#D9C8BA" mask="url(#path-119-inside-59_172_3179)"/>
<path d="M396 167.5V167.849H396.349V167.5H396ZM395.651 134V167.5H396.349V134H395.651ZM396 167.151H362.5V167.849H396V167.151Z" fill="#D9C8BA" mask="url(#path-121-inside-60_172_3179)"/>
<path d="M27.5 201V201.349H27.849V201H27.5ZM27.151 167.5L27.151 201H27.849L27.849 167.5H27.151ZM27.5 200.651H-6V201.349H27.5V200.651Z" fill="#D9C8BA" mask="url(#path-123-inside-61_172_3179)"/>
<mask id="path-125-inside-62_172_3179" fill="white">
<path d="M27.5 167.5H61L61 201H27.5L27.5 167.5Z"/>
</mask>
<path d="M27.5 167.5H61L61 201H27.5L27.5 167.5Z" fill="#E6D2C2"/>
<path d="M61 201V201.349H61.349V201H61ZM60.651 167.5L60.651 201H61.349L61.349 167.5H60.651ZM61 200.651H27.5V201.349H61V200.651Z" fill="#D9C8BA" mask="url(#path-125-inside-62_172_3179)"/>
<path d="M94.5 201V201.349H94.849V201H94.5ZM94.151 167.5V201H94.849V167.5H94.151ZM94.5 200.651H61V201.349H94.5V200.651Z" fill="#D9C8BA" mask="url(#path-127-inside-63_172_3179)"/>
<path d="M128 201V201.349H128.349V201H128ZM127.651 167.5V201H128.349V167.5H127.651ZM128 200.651H94.5V201.349H128V200.651Z" fill="#D9C8BA" mask="url(#path-129-inside-64_172_3179)"/>
<path d="M161.5 201V201.349H161.849V201H161.5ZM161.151 167.5V201H161.849V167.5H161.151ZM161.5 200.651H128V201.349H161.5V200.651Z" fill="#D9C8BA" mask="url(#path-131-inside-65_172_3179)"/>
<path d="M195 201V201.349H195.349V201H195ZM194.651 167.5V201H195.349V167.5H194.651ZM195 200.651H161.5V201.349H195V200.651Z" fill="#D9C8BA" mask="url(#path-133-inside-66_172_3179)"/>
<path d="M228.5 201V201.349H228.849V201H228.5ZM228.151 167.5V201H228.849V167.5H228.151ZM228.5 200.651H195V201.349H228.5V200.651Z" fill="#D9C8BA" mask="url(#path-135-inside-67_172_3179)"/>
<mask id="path-137-inside-68_172_3179" fill="white">
<path d="M228.5 167.5H262V201H228.5V167.5Z"/>
</mask>
<path d="M228.5 167.5H262V201H228.5V167.5Z" fill="#E6D2C2"/>
<path d="M262 201V201.349H262.349V201H262ZM261.651 167.5V201H262.349V167.5H261.651ZM262 200.651H228.5V201.349H262V200.651Z" fill="#D9C8BA" mask="url(#path-137-inside-68_172_3179)"/>
<path d="M295.5 201V201.349H295.849V201H295.5ZM295.151 167.5V201H295.849V167.5H295.151ZM295.5 200.651H262V201.349H295.5V200.651Z" fill="#D9C8BA" mask="url(#path-139-inside-69_172_3179)"/>
<path d="M329 201V201.349H329.349V201H329ZM328.651 167.5V201H329.349V167.5H328.651ZM329 200.651H295.5V201.349H329V200.651Z" fill="#D9C8BA" mask="url(#path-141-inside-70_172_3179)"/>
<path d="M362.5 201V201.349H362.849V201H362.5ZM362.151 167.5V201H362.849V167.5H362.151ZM362.5 200.651H329V201.349H362.5V200.651Z" fill="#D9C8BA" mask="url(#path-143-inside-71_172_3179)"/>
<path d="M396 201V201.349H396.349V201H396ZM395.651 167.5V201H396.349V167.5H395.651ZM396 200.651H362.5V201.349H396V200.651Z" fill="#D9C8BA" mask="url(#path-145-inside-72_172_3179)"/>
<path d="M27.5 234.5V234.849H27.849V234.5H27.5ZM27.151 201L27.151 234.5H27.849L27.849 201H27.151ZM27.5 234.151H-6V234.849H27.5V234.151Z" fill="#D9C8BA" mask="url(#path-147-inside-73_172_3179)"/>
<path d="M61 234.5V234.849H61.349V234.5H61ZM60.651 201L60.651 234.5H61.349L61.349 201H60.651ZM61 234.151H27.5V234.849H61V234.151Z" fill="#D9C8BA" mask="url(#path-149-inside-74_172_3179)"/>
<path d="M94.5 234.5V234.849H94.849V234.5H94.5ZM94.151 201V234.5H94.849V201H94.151ZM94.5 234.151H61V234.849H94.5V234.151Z" fill="#D9C8BA" mask="url(#path-151-inside-75_172_3179)"/>
<path d="M128 234.5V234.849H128.349V234.5H128ZM127.651 201V234.5H128.349V201H127.651ZM128 234.151H94.5V234.849H128V234.151Z" fill="#D9C8BA" mask="url(#path-153-inside-76_172_3179)"/>
<path d="M161.5 234.5V234.849H161.849V234.5H161.5ZM161.151 201V234.5H161.849V201H161.151ZM161.5 234.151H128V234.849H161.5V234.151Z" fill="#D9C8BA" mask="url(#path-155-inside-77_172_3179)"/>
<path d="M195 234.5V234.849H195.349V234.5H195ZM194.651 201V234.5H195.349V201H194.651ZM195 234.151H161.5V234.849H195V234.151Z" fill="#D9C8BA" mask="url(#path-157-inside-78_172_3179)"/>
<path d="M228.5 234.5V234.849H228.849V234.5H228.5ZM228.151 201V234.5H228.849V201H228.151ZM228.5 234.151H195V234.849H228.5V234.151Z" fill="#D9C8BA" mask="url(#path-159-inside-79_172_3179)"/>
<path d="M262 234.5V234.849H262.349V234.5H262ZM261.651 201V234.5H262.349V201H261.651ZM262 234.151H228.5V234.849H262V234.151Z" fill="#D9C8BA" mask="url(#path-161-inside-80_172_3179)"/>
<path d="M295.5 234.5V234.849H295.849V234.5H295.5ZM295.151 201V234.5H295.849V201H295.151ZM295.5 234.151H262V234.849H295.5V234.151Z" fill="#D9C8BA" mask="url(#path-163-inside-81_172_3179)"/>
<path d="M329 234.5V234.849H329.349V234.5H329ZM328.651 201V234.5H329.349V201H328.651ZM329 234.151H295.5V234.849H329V234.151Z" fill="#D9C8BA" mask="url(#path-165-inside-82_172_3179)"/>
<path d="M362.5 234.5V234.849H362.849V234.5H362.5ZM362.151 201V234.5H362.849V201H362.151ZM362.5 234.151H329V234.849H362.5V234.151Z" fill="#D9C8BA" mask="url(#path-167-inside-83_172_3179)"/>
<path d="M396 234.5V234.849H396.349V234.5H396ZM395.651 201V234.5H396.349V201H395.651ZM396 234.151H362.5V234.849H396V234.151Z" fill="#D9C8BA" mask="url(#path-169-inside-84_172_3179)"/>
<path d="M27.5 268V268.349H27.849V268H27.5ZM27.151 234.5L27.151 268H27.849L27.849 234.5H27.151ZM27.5 267.651H-6V268.349H27.5V267.651Z" fill="#D9C8BA" mask="url(#path-171-inside-85_172_3179)"/>
<path d="M61 268V268.349H61.349V268H61ZM60.651 234.5L60.651 268H61.349L61.349 234.5H60.651ZM61 267.651H27.5V268.349H61V267.651Z" fill="#D9C8BA" mask="url(#path-173-inside-86_172_3179)"/>
<path d="M94.5 268V268.349H94.849V268H94.5ZM94.151 234.5V268H94.849V234.5H94.151ZM94.5 267.651H61V268.349H94.5V267.651Z" fill="#D9C8BA" mask="url(#path-175-inside-87_172_3179)"/>
<path d="M128 268V268.349H128.349V268H128ZM127.651 234.5V268H128.349V234.5H127.651ZM128 267.651H94.5V268.349H128V267.651Z" fill="#D9C8BA" mask="url(#path-177-inside-88_172_3179)"/>
<mask id="path-179-inside-89_172_3179" fill="white">
<path d="M128 234.5H161.5V268H128V234.5Z"/>
</mask>
<path d="M128 234.5H161.5V268H128V234.5Z" fill="#E6D2C2"/>
<path d="M161.5 268V268.349H161.849V268H161.5ZM161.151 234.5V268H161.849V234.5H161.151ZM161.5 267.651H128V268.349H161.5V267.651Z" fill="#D9C8BA" mask="url(#path-179-inside-89_172_3179)"/>
<path d="M195 268V268.349H195.349V268H195ZM194.651 234.5V268H195.349V234.5H194.651ZM195 267.651H161.5V268.349H195V267.651Z" fill="#D9C8BA" mask="url(#path-181-inside-90_172_3179)"/>
<path d="M228.5 268V268.349H228.849V268H228.5ZM228.151 234.5V268H228.849V234.5H228.151ZM228.5 267.651H195V268.349H228.5V267.651Z" fill="#D9C8BA" mask="url(#path-183-inside-91_172_3179)"/>
<path d="M262 268V268.349H262.349V268H262ZM261.651 234.5V268H262.349V234.5H261.651ZM262 267.651H228.5V268.349H262V267.651Z" fill="#D9C8BA" mask="url(#path-185-inside-92_172_3179)"/>
<path d="M295.5 268V268.349H295.849V268H295.5ZM295.151 234.5V268H295.849V234.5H295.151ZM295.5 267.651H262V268.349H295.5V267.651Z" fill="#D9C8BA" mask="url(#path-187-inside-93_172_3179)"/>
<path d="M329 268V268.349H329.349V268H329ZM328.651 234.5V268H329.349V234.5H328.651ZM329 267.651H295.5V268.349H329V267.651Z" fill="#D9C8BA" mask="url(#path-189-inside-94_172_3179)"/>
<mask id="path-191-inside-95_172_3179" fill="white">
<path d="M329 234.5H362.5V268H329V234.5Z"/>
</mask>
<path d="M329 234.5H362.5V268H329V234.5Z" fill="#E6D2C2"/>
<path d="M362.5 268V268.349H362.849V268H362.5ZM362.151 234.5V268H362.849V234.5H362.151ZM362.5 267.651H329V268.349H362.5V267.651Z" fill="#D9C8BA" mask="url(#path-191-inside-95_172_3179)"/>
<path d="M396 268V268.349H396.349V268H396ZM395.651 234.5V268H396.349V234.5H395.651ZM396 267.651H362.5V268.349H396V267.651Z" fill="#D9C8BA" mask="url(#path-193-inside-96_172_3179)"/>
<path d="M27.5 301.5V301.849H27.849V301.5H27.5ZM27.151 268L27.151 301.5H27.849L27.849 268H27.151ZM27.5 301.151H-6V301.849H27.5V301.151Z" fill="#D9C8BA" mask="url(#path-195-inside-97_172_3179)"/>
<mask id="path-197-inside-98_172_3179" fill="white">
<path d="M27.5 268H61L61 301.5H27.5L27.5 268Z"/>
</mask>
<path d="M27.5 268H61L61 301.5H27.5L27.5 268Z" fill="#E6D2C2"/>
<path d="M61 301.5V301.849H61.349V301.5H61ZM60.651 268L60.651 301.5H61.349L61.349 268H60.651ZM61 301.151H27.5V301.849H61V301.151Z" fill="#D9C8BA" mask="url(#path-197-inside-98_172_3179)"/>
<path d="M94.5 301.5V301.849H94.849V301.5H94.5ZM94.151 268V301.5H94.849V268H94.151ZM94.5 301.151H61V301.849H94.5V301.151Z" fill="#D9C8BA" mask="url(#path-199-inside-99_172_3179)"/>
<path d="M128 301.5V301.849H128.349V301.5H128ZM127.651 268V301.5H128.349V268H127.651ZM128 301.151H94.5V301.849H128V301.151Z" fill="#D9C8BA" mask="url(#path-201-inside-100_172_3179)"/>
<path d="M161.5 301.5V301.849H161.849V301.5H161.5ZM161.151 268V301.5H161.849V268H161.151ZM161.5 301.151H128V301.849H161.5V301.151Z" fill="#D9C8BA" mask="url(#path-203-inside-101_172_3179)"/>
<path d="M195 301.5V301.849H195.349V301.5H195ZM194.651 268V301.5H195.349V268H194.651ZM195 301.151H161.5V301.849H195V301.151Z" fill="#D9C8BA" mask="url(#path-205-inside-102_172_3179)"/>
<path d="M228.5 301.5V301.849H228.849V301.5H228.5ZM228.151 268V301.5H228.849V268H228.151ZM228.5 301.151H195V301.849H228.5V301.151Z" fill="#D9C8BA" mask="url(#path-207-inside-103_172_3179)"/>
<mask id="path-209-inside-104_172_3179" fill="white">
<path d="M228.5 268H262V301.5H228.5V268Z"/>
</mask>
<path d="M228.5 268H262V301.5H228.5V268Z" fill="#E6D2C2"/>
<path d="M262 301.5V301.849H262.349V301.5H262ZM261.651 268V301.5H262.349V268H261.651ZM262 301.151H228.5V301.849H262V301.151Z" fill="#D9C8BA" mask="url(#path-209-inside-104_172_3179)"/>
<path d="M295.5 301.5V301.849H295.849V301.5H295.5ZM295.151 268V301.5H295.849V268H295.151ZM295.5 301.151H262V301.849H295.5V301.151Z" fill="#D9C8BA" mask="url(#path-211-inside-105_172_3179)"/>
<path d="M329 301.5V301.849H329.349V301.5H329ZM328.651 268V301.5H329.349V268H328.651ZM329 301.151H295.5V301.849H329V301.151Z" fill="#D9C8BA" mask="url(#path-213-inside-106_172_3179)"/>
<path d="M362.5 301.5V301.849H362.849V301.5H362.5ZM362.151 268V301.5H362.849V268H362.151ZM362.5 301.151H329V301.849H362.5V301.151Z" fill="#D9C8BA" mask="url(#path-215-inside-107_172_3179)"/>
<path d="M396 301.5V301.849H396.349V301.5H396ZM395.651 268V301.5H396.349V268H395.651ZM396 301.151H362.5V301.849H396V301.151Z" fill="#D9C8BA" mask="url(#path-217-inside-108_172_3179)"/>
<path d="M27.5 335V335.349H27.849V335H27.5ZM27.151 301.5L27.151 335H27.849L27.849 301.5H27.151ZM27.5 334.651H-6V335.349H27.5V334.651Z" fill="#D9C8BA" mask="url(#path-219-inside-109_172_3179)"/>
<path d="M61 335V335.349H61.349V335H61ZM60.651 301.5L60.651 335H61.349L61.349 301.5H60.651ZM61 334.651H27.5V335.349H61V334.651Z" fill="#D9C8BA" mask="url(#path-221-inside-110_172_3179)"/>
<path d="M94.5 335V335.349H94.849V335H94.5ZM94.151 301.5V335H94.849V301.5H94.151ZM94.5 334.651H61V335.349H94.5V334.651Z" fill="#D9C8BA" mask="url(#path-223-inside-111_172_3179)"/>
<path d="M128 335V335.349H128.349V335H128ZM127.651 301.5V335H128.349V301.5H127.651ZM128 334.651H94.5V335.349H128V334.651Z" fill="#D9C8BA" mask="url(#path-225-inside-112_172_3179)"/>
<path d="M161.5 335V335.349H161.849V335H161.5ZM161.151 301.5V335H161.849V301.5H161.151ZM161.5 334.651H128V335.349H161.5V334.651Z" fill="#D9C8BA" mask="url(#path-227-inside-113_172_3179)"/>
<path d="M195 335V335.349H195.349V335H195ZM194.651 301.5V335H195.349V301.5H194.651ZM195 334.651H161.5V335.349H195V334.651Z" fill="#D9C8BA" mask="url(#path-229-inside-114_172_3179)"/>
<path d="M228.5 335V335.349H228.849V335H228.5ZM228.151 301.5V335H228.849V301.5H228.151ZM228.5 334.651H195V335.349H228.5V334.651Z" fill="#D9C8BA" mask="url(#path-231-inside-115_172_3179)"/>
<path d="M262 335V335.349H262.349V335H262ZM261.651 301.5V335H262.349V301.5H261.651ZM262 334.651H228.5V335.349H262V334.651Z" fill="#D9C8BA" mask="url(#path-233-inside-116_172_3179)"/>
<path d="M295.5 335V335.349H295.849V335H295.5ZM295.151 301.5V335H295.849V301.5H295.151ZM295.5 334.651H262V335.349H295.5V334.651Z" fill="#D9C8BA" mask="url(#path-235-inside-117_172_3179)"/>
<path d="M329 335V335.349H329.349V335H329ZM328.651 301.5V335H329.349V301.5H328.651ZM329 334.651H295.5V335.349H329V334.651Z" fill="#D9C8BA" mask="url(#path-237-inside-118_172_3179)"/>
<path d="M362.5 335V335.349H362.849V335H362.5ZM362.151 301.5V335H362.849V301.5H362.151ZM362.5 334.651H329V335.349H362.5V334.651Z" fill="#D9C8BA" mask="url(#path-239-inside-119_172_3179)"/>
<path d="M396 335V335.349H396.349V335H396ZM395.651 301.5V335H396.349V301.5H395.651ZM396 334.651H362.5V335.349H396V334.651Z" fill="#D9C8BA" mask="url(#path-241-inside-120_172_3179)"/>
<path d="M27.5 368.5V368.849H27.849V368.5H27.5ZM27.151 335L27.151 368.5H27.849L27.849 335H27.151ZM27.5 368.151H-6V368.849H27.5V368.151Z" fill="#D9C8BA" mask="url(#path-243-inside-121_172_3179)"/>
<path d="M61 368.5V368.849H61.349V368.5H61ZM60.651 335L60.651 368.5H61.349L61.349 335H60.651ZM61 368.151H27.5V368.849H61V368.151Z" fill="#D9C8BA" mask="url(#path-245-inside-122_172_3179)"/>
<mask id="path-247-inside-123_172_3179" fill="white">
<path d="M61 335H94.5V368.5H61L61 335Z"/>
</mask>
<path d="M61 335H94.5V368.5H61L61 335Z" fill="#E6D2C2"/>
<path d="M94.5 368.5V368.849H94.849V368.5H94.5ZM94.151 335V368.5H94.849V335H94.151ZM94.5 368.151H61V368.849H94.5V368.151Z" fill="#D9C8BA" mask="url(#path-247-inside-123_172_3179)"/>
<path d="M128 368.5V368.849H128.349V368.5H128ZM127.651 335V368.5H128.349V335H127.651ZM128 368.151H94.5V368.849H128V368.151Z" fill="#D9C8BA" mask="url(#path-249-inside-124_172_3179)"/>
<path d="M161.5 368.5V368.849H161.849V368.5H161.5ZM161.151 335V368.5H161.849V335H161.151ZM161.5 368.151H128V368.849H161.5V368.151Z" fill="#D9C8BA" mask="url(#path-251-inside-125_172_3179)"/>
<path d="M195 368.5V368.849H195.349V368.5H195ZM194.651 335V368.5H195.349V335H194.651ZM195 368.151H161.5V368.849H195V368.151Z" fill="#D9C8BA" mask="url(#path-253-inside-126_172_3179)"/>
<mask id="path-255-inside-127_172_3179" fill="white">
<path d="M195 335H228.5V368.5H195V335Z"/>
</mask>
<path d="M195 335H228.5V368.5H195V335Z" fill="#E6D2C2"/>
<path d="M228.5 368.5V368.849H228.849V368.5H228.5ZM228.151 335V368.5H228.849V335H228.151ZM228.5 368.151H195V368.849H228.5V368.151Z" fill="#D9C8BA" mask="url(#path-255-inside-127_172_3179)"/>
<path d="M262 368.5V368.849H262.349V368.5H262ZM261.651 335V368.5H262.349V335H261.651ZM262 368.151H228.5V368.849H262V368.151Z" fill="#D9C8BA" mask="url(#path-257-inside-128_172_3179)"/>
<path d="M295.5 368.5V368.849H295.849V368.5H295.5ZM295.151 335V368.5H295.849V335H295.151ZM295.5 368.151H262V368.849H295.5V368.151Z" fill="#D9C8BA" mask="url(#path-259-inside-129_172_3179)"/>
<path d="M329 368.5V368.849H329.349V368.5H329ZM328.651 335V368.5H329.349V335H328.651ZM329 368.151H295.5V368.849H329V368.151Z" fill="#D9C8BA" mask="url(#path-261-inside-130_172_3179)"/>
<path d="M362.5 368.5V368.849H362.849V368.5H362.5ZM362.151 335V368.5H362.849V335H362.151ZM362.5 368.151H329V368.849H362.5V368.151Z" fill="#D9C8BA" mask="url(#path-263-inside-131_172_3179)"/>
<path d="M396 368.5V368.849H396.349V368.5H396ZM395.651 335V368.5H396.349V335H395.651ZM396 368.151H362.5V368.849H396V368.151Z" fill="#D9C8BA" mask="url(#path-265-inside-132_172_3179)"/>
<path d="M27.5 402V402.349H27.849V402H27.5ZM27.151 368.5L27.151 402H27.849L27.849 368.5H27.151ZM27.5 401.651H-6V402.349H27.5V401.651Z" fill="#D9C8BA" mask="url(#path-267-inside-133_172_3179)"/>
<path d="M61 402V402.349H61.349V402H61ZM60.651 368.5L60.651 402H61.349L61.349 368.5H60.651ZM61 401.651H27.5V402.349H61V401.651Z" fill="#D9C8BA" mask="url(#path-269-inside-134_172_3179)"/>
<path d="M94.5 402V402.349H94.849V402H94.5ZM94.151 368.5V402H94.849V368.5H94.151ZM94.5 401.651H61V402.349H94.5V401.651Z" fill="#D9C8BA" mask="url(#path-271-inside-135_172_3179)"/>
<path d="M128 402V402.349H128.349V402H128ZM127.651 368.5V402H128.349V368.5H127.651ZM128 401.651H94.5V402.349H128V401.651Z" fill="#D9C8BA" mask="url(#path-273-inside-136_172_3179)"/>
<path d="M161.5 402V402.349H161.849V402H161.5ZM161.151 368.5V402H161.849V368.5H161.151ZM161.5 401.651H128V402.349H161.5V401.651Z" fill="#D9C8BA" mask="url(#path-275-inside-137_172_3179)"/>
<path d="M195 402V402.349H195.349V402H195ZM194.651 368.5V402H195.349V368.5H194.651ZM195 401.651H161.5V402.349H195V401.651Z" fill="#D9C8BA" mask="url(#path-277-inside-138_172_3179)"/>
<path d="M228.5 402V402.349H228.849V402H228.5ZM228.151 368.5V402H228.849V368.5H228.151ZM228.5 401.651H195V402.349H228.5V401.651Z" fill="#D9C8BA" mask="url(#path-279-inside-139_172_3179)"/>
<path d="M262 402V402.349H262.349V402H262ZM261.651 368.5V402H262.349V368.5H261.651ZM262 401.651H228.5V402.349H262V401.651Z" fill="#D9C8BA" mask="url(#path-281-inside-140_172_3179)"/>
<path d="M295.5 402V402.349H295.849V402H295.5ZM295.151 368.5V402H295.849V368.5H295.151ZM295.5 401.651H262V402.349H295.5V401.651Z" fill="#D9C8BA" mask="url(#path-283-inside-141_172_3179)"/>
<path d="M329 402V402.349H329.349V402H329ZM328.651 368.5V402H329.349V368.5H328.651ZM329 401.651H295.5V402.349H329V401.651Z" fill="#D9C8BA" mask="url(#path-285-inside-142_172_3179)"/>
<mask id="path-287-inside-143_172_3179" fill="white">
<path d="M329 368.5H362.5V402H329V368.5Z"/>
</mask>
<path d="M329 368.5H362.5V402H329V368.5Z" fill="#E6D2C2"/>
<path d="M362.5 402V402.349H362.849V402H362.5ZM362.151 368.5V402H362.849V368.5H362.151ZM362.5 401.651H329V402.349H362.5V401.651Z" fill="#D9C8BA" mask="url(#path-287-inside-143_172_3179)"/>
<path d="M396 402V402.349H396.349V402H396ZM395.651 368.5V402H396.349V368.5H395.651ZM396 401.651H362.5V402.349H396V401.651Z" fill="#D9C8BA" mask="url(#path-289-inside-144_172_3179)"/>
<path d="M27.5 435.5V435.849H27.849V435.5H27.5ZM27.151 402L27.151 435.5H27.849L27.849 402H27.151ZM27.5 435.151H-6V435.849H27.5V435.151Z" fill="#D9C8BA" mask="url(#path-291-inside-145_172_3179)"/>
<path d="M61 435.5V435.849H61.349V435.5H61ZM60.651 402L60.651 435.5H61.349L61.349 402H60.651ZM61 435.151H27.5V435.849H61V435.151Z" fill="#D9C8BA" mask="url(#path-293-inside-146_172_3179)"/>
<path d="M94.5 435.5V435.849H94.849V435.5H94.5ZM94.151 402V435.5H94.849V402H94.151ZM94.5 435.151H61V435.849H94.5V435.151Z" fill="#D9C8BA" mask="url(#path-295-inside-147_172_3179)"/>
<path d="M128 435.5V435.849H128.349V435.5H128ZM127.651 402V435.5H128.349V402H127.651ZM128 435.151H94.5V435.849H128V435.151Z" fill="#D9C8BA" mask="url(#path-297-inside-148_172_3179)"/>
<mask id="path-299-inside-149_172_3179" fill="white">
<path d="M128 402H161.5V435.5H128V402Z"/>
</mask>
<path d="M128 402H161.5V435.5H128V402Z" fill="#E6D2C2"/>
<path d="M161.5 435.5V435.849H161.849V435.5H161.5ZM161.151 402V435.5H161.849V402H161.151ZM161.5 435.151H128V435.849H161.5V435.151Z" fill="#D9C8BA" mask="url(#path-299-inside-149_172_3179)"/>
<path d="M195 435.5V435.849H195.349V435.5H195ZM194.651 402V435.5H195.349V402H194.651ZM195 435.151H161.5V435.849H195V435.151Z" fill="#D9C8BA" mask="url(#path-301-inside-150_172_3179)"/>
<path d="M228.5 435.5V435.849H228.849V435.5H228.5ZM228.151 402V435.5H228.849V402H228.151ZM228.5 435.151H195V435.849H228.5V435.151Z" fill="#D9C8BA" mask="url(#path-303-inside-151_172_3179)"/>
<path d="M262 435.5V435.849H262.349V435.5H262ZM261.651 402V435.5H262.349V402H261.651ZM262 435.151H228.5V435.849H262V435.151Z" fill="#D9C8BA" mask="url(#path-305-inside-152_172_3179)"/>
<path d="M295.5 435.5V435.849H295.849V435.5H295.5ZM295.151 402V435.5H295.849V402H295.151ZM295.5 435.151H262V435.849H295.5V435.151Z" fill="#D9C8BA" mask="url(#path-307-inside-153_172_3179)"/>
<path d="M329 435.5V435.849H329.349V435.5H329ZM328.651 402V435.5H329.349V402H328.651ZM329 435.151H295.5V435.849H329V435.151Z" fill="#D9C8BA" mask="url(#path-309-inside-154_172_3179)"/>
<path d="M362.5 435.5V435.849H362.849V435.5H362.5ZM362.151 402V435.5H362.849V402H362.151ZM362.5 435.151H329V435.849H362.5V435.151Z" fill="#D9C8BA" mask="url(#path-311-inside-155_172_3179)"/>
<path d="M396 435.5V435.849H396.349V435.5H396ZM395.651 402V435.5H396.349V402H395.651ZM396 435.151H362.5V435.849H396V435.151Z" fill="#D9C8BA" mask="url(#path-313-inside-156_172_3179)"/>
<path d="M27.5 469V469.349H27.849V469H27.5ZM27.151 435.5L27.151 469H27.849L27.849 435.5H27.151ZM27.5 468.651H-6V469.349H27.5V468.651Z" fill="#D9C8BA" mask="url(#path-315-inside-157_172_3179)"/>
<mask id="path-317-inside-158_172_3179" fill="white">
<path d="M27.5 435.5H61L61 469H27.5L27.5 435.5Z"/>
</mask>
<path d="M27.5 435.5H61L61 469H27.5L27.5 435.5Z" fill="#E6D2C2"/>
<path d="M61 469V469.349H61.349V469H61ZM60.651 435.5L60.651 469H61.349L61.349 435.5H60.651ZM61 468.651H27.5V469.349H61V468.651Z" fill="#D9C8BA" mask="url(#path-317-inside-158_172_3179)"/>
<path d="M94.5 469V469.349H94.849V469H94.5ZM94.151 435.5V469H94.849V435.5H94.151ZM94.5 468.651H61V469.349H94.5V468.651Z" fill="#D9C8BA" mask="url(#path-319-inside-159_172_3179)"/>
<path d="M128 469V469.349H128.349V469H128ZM127.651 435.5V469H128.349V435.5H127.651ZM128 468.651H94.5V469.349H128V468.651Z" fill="#D9C8BA" mask="url(#path-321-inside-160_172_3179)"/>
<path d="M161.5 469V469.349H161.849V469H161.5ZM161.151 435.5V469H161.849V435.5H161.151ZM161.5 468.651H128V469.349H161.5V468.651Z" fill="#D9C8BA" mask="url(#path-323-inside-161_172_3179)"/>
<path d="M195 469V469.349H195.349V469H195ZM194.651 435.5V469H195.349V435.5H194.651ZM195 468.651H161.5V469.349H195V468.651Z" fill="#D9C8BA" mask="url(#path-325-inside-162_172_3179)"/>
<path d="M228.5 469V469.349H228.849V469H228.5ZM228.151 435.5V469H228.849V435.5H228.151ZM228.5 468.651H195V469.349H228.5V468.651Z" fill="#D9C8BA" mask="url(#path-327-inside-163_172_3179)"/>
<mask id="path-329-inside-164_172_3179" fill="white">
<path d="M228.5 435.5H262V469H228.5V435.5Z"/>
</mask>
<path d="M228.5 435.5H262V469H228.5V435.5Z" fill="#E6D2C2"/>
<path d="M262 469V469.349H262.349V469H262ZM261.651 435.5V469H262.349V435.5H261.651ZM262 468.651H228.5V469.349H262V468.651Z" fill="#D9C8BA" mask="url(#path-329-inside-164_172_3179)"/>
<path d="M295.5 469V469.349H295.849V469H295.5ZM295.151 435.5V469H295.849V435.5H295.151ZM295.5 468.651H262V469.349H295.5V468.651Z" fill="#D9C8BA" mask="url(#path-331-inside-165_172_3179)"/>
<path d="M329 469V469.349H329.349V469H329ZM328.651 435.5V469H329.349V435.5H328.651ZM329 468.651H295.5V469.349H329V468.651Z" fill="#D9C8BA" mask="url(#path-333-inside-166_172_3179)"/>
<path d="M362.5 469V469.349H362.849V469H362.5ZM362.151 435.5V469H362.849V435.5H362.151ZM362.5 468.651H329V469.349H362.5V468.651Z" fill="#D9C8BA" mask="url(#path-335-inside-167_172_3179)"/>
<path d="M396 469V469.349H396.349V469H396ZM395.651 435.5V469H396.349V435.5H395.651ZM396 468.651H362.5V469.349H396V468.651Z" fill="#D9C8BA" mask="url(#path-337-inside-168_172_3179)"/>
<path d="M27.5 502.5V502.849H27.849V502.5H27.5ZM27.151 469L27.151 502.5H27.849L27.849 469H27.151ZM27.5 502.151H-6V502.849H27.5V502.151Z" fill="#D9C8BA" mask="url(#path-339-inside-169_172_3179)"/>
<path d="M61 502.5V502.849H61.349V502.5H61ZM60.651 469L60.651 502.5H61.349L61.349 469H60.651ZM61 502.151H27.5V502.849H61V502.151Z" fill="#D9C8BA" mask="url(#path-341-inside-170_172_3179)"/>
<path d="M94.5 502.5V502.849H94.849V502.5H94.5ZM94.151 469V502.5H94.849V469H94.151ZM94.5 502.151H61V502.849H94.5V502.151Z" fill="#D9C8BA" mask="url(#path-343-inside-171_172_3179)"/>
<path d="M128 502.5V502.849H128.349V502.5H128ZM127.651 469V502.5H128.349V469H127.651ZM128 502.151H94.5V502.849H128V502.151Z" fill="#D9C8BA" mask="url(#path-345-inside-172_172_3179)"/>
<path d="M161.5 502.5V502.849H161.849V502.5H161.5ZM161.151 469V502.5H161.849V469H161.151ZM161.5 502.151H128V502.849H161.5V502.151Z" fill="#D9C8BA" mask="url(#path-347-inside-173_172_3179)"/>
<path d="M195 502.5V502.849H195.349V502.5H195ZM194.651 469V502.5H195.349V469H194.651ZM195 502.151H161.5V502.849H195V502.151Z" fill="#D9C8BA" mask="url(#path-349-inside-174_172_3179)"/>
<path d="M228.5 502.5V502.849H228.849V502.5H228.5ZM228.151 469V502.5H228.849V469H228.151ZM228.5 502.151H195V502.849H228.5V502.151Z" fill="#D9C8BA" mask="url(#path-351-inside-175_172_3179)"/>
<path d="M262 502.5V502.849H262.349V502.5H262ZM261.651 469V502.5H262.349V469H261.651ZM262 502.151H228.5V502.849H262V502.151Z" fill="#D9C8BA" mask="url(#path-353-inside-176_172_3179)"/>
<path d="M295.5 502.5V502.849H295.849V502.5H295.5ZM295.151 469V502.5H295.849V469H295.151ZM295.5 502.151H262V502.849H295.5V502.151Z" fill="#D9C8BA" mask="url(#path-355-inside-177_172_3179)"/>
<path d="M329 502.5V502.849H329.349V502.5H329ZM328.651 469V502.5H329.349V469H328.651ZM329 502.151H295.5V502.849H329V502.151Z" fill="#D9C8BA" mask="url(#path-357-inside-178_172_3179)"/>
<path d="M362.5 502.5V502.849H362.849V502.5H362.5ZM362.151 469V502.5H362.849V469H362.151ZM362.5 502.151H329V502.849H362.5V502.151Z" fill="#D9C8BA" mask="url(#path-359-inside-179_172_3179)"/>
<path d="M396 502.5V502.849H396.349V502.5H396ZM395.651 469V502.5H396.349V469H395.651ZM396 502.151H362.5V502.849H396V502.151Z" fill="#D9C8BA" mask="url(#path-361-inside-180_172_3179)"/>
</g>
<rect x="-139.826" y="0.174479" width="669.651" height="502.151" stroke="#D9C8BA" stroke-width="0.348958"/>
</g>
</g>
<defs>
<radialGradient id="paint0_radial_172_3179" cx="0" cy="0" r="1" gradientUnits="userSpaceOnUse" gradientTransform="translate(251.25 -5.99027e-05) rotate(90) scale(502.5 262.273)">
<stop/>
<stop offset="0.953125" stop-opacity="0"/>
</radialGradient>
<clipPath id="clip0_172_3179">
<rect width="390" height="502" fill="white"/>
</clipPath>
<clipPath id="clip1_172_3179">
<rect x="-140" width="670" height="502.5" fill="white"/>
</clipPath>
</defs>
</svg>
