<?xml version="1.0" standalone="no"?>
<!DOCTYPE svg PUBLIC "-//W3C//DTD SVG 20010904//EN"
 "http://www.w3.org/TR/2001/REC-SVG-20010904/DTD/svg10.dtd">
<svg version="1.0" xmlns="http://www.w3.org/2000/svg"
 width="93.000000pt" height="93.000000pt" viewBox="0 0 93.000000 93.000000"
 preserveAspectRatio="xMidYMid meet">
<metadata>
Created by potrace 1.14, written by Peter Selinger 2001-2017
</metadata>
<g transform="translate(0.000000,93.000000) scale(0.100000,-0.100000)"
fill="#000000" stroke="none">
<path d="M294 712 c-10 -9 -32 -23 -47 -30 -34 -15 -31 -37 5 -37 16 -1 44
-18 76 -49 67 -64 89 -79 97 -66 6 10 -11 50 -23 50 -4 1 -31 23 -60 49 -43
40 -49 50 -36 55 11 4 27 -2 43 -17 14 -12 49 -44 78 -70 29 -26 61 -47 72
-47 11 0 36 14 54 30 39 34 73 41 62 13 -3 -10 -12 -50 -20 -89 -22 -115 -52
-168 -112 -198 -18 -9 -46 -16 -63 -16 -28 0 -30 2 -30 40 0 37 -6 46 -77 115
-43 41 -83 75 -90 75 -31 0 -16 -23 57 -93 44 -42 80 -81 80 -86 0 -25 -17
-45 -71 -82 -33 -22 -66 -50 -74 -63 -33 -49 17 -80 89 -55 33 11 45 23 63 60
21 44 24 47 82 58 103 20 147 76 172 215 13 79 33 103 104 130 25 10 45 22 45
27 0 12 -5 11 -49 -2 -29 -9 -44 -8 -71 3 -41 17 -82 9 -115 -22 -31 -29 -46
-23 -130 55 -38 36 -75 65 -81 65 -5 0 -19 -8 -30 -18z m41 -492 c-20 -38 -59
-64 -82 -55 -15 6 -11 13 26 46 54 49 79 53 56 9z"/>
<path d="M195 607 c-21 -16 -11 -40 13 -33 17 6 27 -1 117 -81 43 -39 65 -47
65 -23 0 16 -148 150 -166 150 -5 0 -18 -6 -29 -13z"/>
</g>
</svg>
